<svg xmlns="http://www.w3.org/2000/svg" xmlns:xlink="http://www.w3.org/1999/xlink" version="1.1" width="4060" height="1955" style="width: 4060px; height: 1955px; background: #ffffff" viewBox="0 0 4060 1955"><style id="v-3" type="text/css">        .joint-element .scalable * {            vector-effect: non-scaling-stroke;        }    </style><defs joint-selector="defs"><marker id="v-2633353823" orient="auto" overflow="visible" markerUnits="userSpaceOnUse"><path id="v-100" stroke="#444444" fill="#444444" transform="rotate(180)" d="M 40 -20 0 0 40 20 Z"></path></marker></defs><g  joint-selector="layers" transform="matrix(1,0,0,1,0,0)"><g style="pointer-events: none;" ></g><g ></g><g  style="user-select: none;"><!--z-index:1--><!--z-index:2--><!--z-index:3--><!--z-index:4--><!--z-index:5--><!--z-index:6--><!--z-index:7--><!--z-index:8--><!--z-index:9--><!--z-index:10--><!--z-index:11--><!--z-index:12--><!--z-index:13--><!--z-index:14--><!--z-index:15--><!--z-index:16--><!--z-index:17--><!--z-index:18--><!--z-index:19--><!--z-index:20--><!--z-index:21--><!--z-index:22--><!--z-index:23--><g   id="j_36"  transform="translate(20,1911)"><g id="v-277"><text  id="v-278" font-size="24px" xml:space="preserve" y="0.8em" font-weight="normal" text-anchor="start" fill="#444444" pointer-events="none" display="block" font-family="Tahoma, Verdana, Helvetica, Arial"><tspan  dy="0">Thursday, June 25, 2026 at 8:23 PM Central European Summer Time</tspan></text></g></g><!--z-index:24--><g   id="j_35"  transform="translate(20,1865)"><g id="v-275"><text  id="v-276" font-size="36px" xml:space="preserve" y="0.8em" font-weight="normal" text-anchor="start" fill="#444444" pointer-events="none" display="block" font-family="Tahoma, Verdana, Helvetica, Arial"><tspan  dy="0">Container View: Byakko</tspan></text></g></g><!--z-index:25--><g   id="j_37"  transform="translate(200,160)" style=""><g  id="v-279" style="opacity: 1;"><rect  x="0" y="160" width="400" height="240" rx="70" id="v-281" stroke-width="7" pointer-events="visiblePainted" fill="#ffffff" stroke="#0773af" stroke-dasharray="" style="fill: rgb(255, 255, 255); stroke: rgb(7, 115, 175);"></rect><circle  cx="200" cy="88.88888888888889" r="88.88888888888889" id="v-280" stroke-width="7" pointer-events="visiblePainted" fill="#ffffff" stroke="#0773af" stroke-dasharray="" style="fill: rgb(255, 255, 255); stroke: rgb(7, 115, 175);"></circle><line  x1="80" y1="266.6666666666667" x2="80" y2="400" id="v-287" stroke="#0773af" stroke-width="1" stroke-dasharray="" style="stroke: rgb(7, 115, 175);"></line><line  x1="320" y1="266.6666666666667" x2="320" y2="400" id="v-288" stroke="#0773af" stroke-width="1" stroke-dasharray="" style="stroke: rgb(7, 115, 175);"></line><text  id="v-282" font-size="33.599999999999994px" xml:space="preserve" y="250.8" font-weight="bold" text-anchor="middle" pointer-events="visible" font-family="Tahoma, Verdana, Helvetica, Arial" fill="#0773af" dominant-baseline="hanging" transform="matrix(1,0,0,1,200,0)" style="fill: rgb(7, 115, 175);"><tspan  dy="0">User</tspan></text><text  id="v-283" font-size="16.799999999999997px" xml:space="preserve" y="292.4" text-anchor="middle" font-family="Tahoma, Verdana, Helvetica, Arial" fill="#0773af" dominant-baseline="hanging" transform="matrix(1,0,0,1,200,0)" style="display: block; fill: rgb(7, 115, 175);"><tspan  dy="0">[Person]</tspan></text><text  id="v-284" font-size="24px" xml:space="preserve" display="none" y="250.8" text-anchor="middle" font-family="Tahoma, Verdana, Helvetica, Arial" fill="#0773af" dominant-baseline="hanging" transform="matrix(1,0,0,1,200,0)" style="display: block; fill: rgb(7, 115, 175);"><tspan style="fill-opacity: 0; stroke-opacity: 0;"  dy="0">-</tspan></text><g  id="v-285" font-weight="normal" text-anchor="middle" color="#0773af" transform="matrix(1,0,0,1,197.5,368)" style="fill: rgb(7, 115, 175);" display="none"><g ></g><g ></g><g ></g><g ></g></g><image  id="v-286"></image></g></g><!--z-index:26--><g   id="j_38"  transform="translate(200,610)" style=""><g  id="v-289" style="opacity: 1;"><rect  x="0" y="160" width="400" height="240" rx="70" id="v-291" stroke-width="7" pointer-events="visiblePainted" fill="#ffffff" stroke="#0773af" stroke-dasharray="" style="fill: rgb(255, 255, 255); stroke: rgb(7, 115, 175);"></rect><circle  cx="200" cy="88.88888888888889" r="88.88888888888889" id="v-290" stroke-width="7" pointer-events="visiblePainted" fill="#ffffff" stroke="#0773af" stroke-dasharray="" style="fill: rgb(255, 255, 255); stroke: rgb(7, 115, 175);"></circle><line  x1="80" y1="266.6666666666667" x2="80" y2="400" id="v-297" stroke="#0773af" stroke-width="1" stroke-dasharray="" style="stroke: rgb(7, 115, 175);"></line><line  x1="320" y1="266.6666666666667" x2="320" y2="400" id="v-298" stroke="#0773af" stroke-width="1" stroke-dasharray="" style="stroke: rgb(7, 115, 175);"></line><text  id="v-292" font-size="33.599999999999994px" xml:space="preserve" y="250.8" font-weight="bold" text-anchor="middle" pointer-events="visible" font-family="Tahoma, Verdana, Helvetica, Arial" fill="#0773af" dominant-baseline="hanging" transform="matrix(1,0,0,1,200,0)" style="fill: rgb(7, 115, 175);"><tspan  dy="0">Administrator</tspan></text><text  id="v-293" font-size="16.799999999999997px" xml:space="preserve" y="292.4" text-anchor="middle" font-family="Tahoma, Verdana, Helvetica, Arial" fill="#0773af" dominant-baseline="hanging" transform="matrix(1,0,0,1,200,0)" style="display: block; fill: rgb(7, 115, 175);"><tspan  dy="0">[Person]</tspan></text><text  id="v-294" font-size="24px" xml:space="preserve" display="none" y="250.8" text-anchor="middle" font-family="Tahoma, Verdana, Helvetica, Arial" fill="#0773af" dominant-baseline="hanging" transform="matrix(1,0,0,1,200,0)" style="display: block; fill: rgb(7, 115, 175);"><tspan style="fill-opacity: 0; stroke-opacity: 0;"  dy="0">-</tspan></text><g  id="v-295" font-weight="normal" text-anchor="middle" color="#0773af" transform="matrix(1,0,0,1,197.5,368)" style="fill: rgb(7, 115, 175);" display="none"><g ></g><g ></g><g ></g><g ></g></g><image  id="v-296"></image></g></g><!--z-index:27--><g   id="j_40"  transform="translate(940,160)" style="; opacity: 1;"><g id="v-306"><rect  id="v-307" width="2130" height="1284" rx="20" ry="20" stroke-width="5" pointer-events="none" stroke="#0773af" fill="#ffffff" opacity="1" stroke-dasharray=""></rect><text  id="v-308" font-size="33.599999999999994px" xml:space="preserve" y="1245" font-weight="bold" text-anchor="start" pointer-events="visible" font-family="Tahoma, Verdana, Helvetica, Arial" fill="#0773af" transform="matrix(1,0,0,1,15,0)"><tspan  dy="0">Byakko</tspan></text><text  id="v-309" font-size="16.799999999999997px" xml:space="preserve" y="1269" font-weight="normal" text-anchor="start" pointer-events="visible" font-family="Tahoma, Verdana, Helvetica, Arial" fill="#0773af" transform="matrix(1,0,0,1,15,0)"><tspan  dy="0">[Software System]</tspan></text><image  id="v-310" pointer-events="visible"></image></g></g><!--z-index:28--><g   id="j_39"  transform="translate(1780,660)" style=""><g  id="v-299" style="opacity: 1;"><rect  id="v-300" rx="20" ry="20" stroke-width="7" pointer-events="visiblePainted" fill="#ffffff" stroke="#0773af" stroke-dasharray="" width="450" height="300" style="fill: rgb(255, 255, 255); stroke: rgb(7, 115, 175);"></rect><text  id="v-301" font-size="33.599999999999994px" xml:space="preserve" y="120.80000000000001" font-weight="bold" text-anchor="middle" pointer-events="visible" font-family="Tahoma, Verdana, Helvetica, Arial" fill="#0773af" dominant-baseline="hanging" transform="matrix(1,0,0,1,225,0)" style="fill: rgb(7, 115, 175);"><tspan  dy="0">Api</tspan></text><text  id="v-302" font-size="16.799999999999997px" xml:space="preserve" y="162.4" text-anchor="middle" font-family="Tahoma, Verdana, Helvetica, Arial" fill="#0773af" dominant-baseline="hanging" transform="matrix(1,0,0,1,225,0)" style="display: block; fill: rgb(7, 115, 175);"><tspan  dy="0">[Container: Asp.Net Core]</tspan></text><text  id="v-303" font-size="24px" xml:space="preserve" display="none" y="120.80000000000001" text-anchor="middle" font-family="Tahoma, Verdana, Helvetica, Arial" fill="#0773af" dominant-baseline="hanging" transform="matrix(1,0,0,1,225,0)" style="display: block; fill: rgb(7, 115, 175);"><tspan style="fill-opacity: 0; stroke-opacity: 0;"  dy="0">-</tspan></text><g  id="v-304" color="#0773af" transform="matrix(1,0,0,1,210,268)" style="fill: rgb(7, 115, 175);" display="none"><g ></g><g ></g><g ></g><g  transform="translate(5 0)"><svg xmlns="http://www.w3.org/2000/svg" width="20" height="20" fill="currentColor" viewBox="0 0 16 16"><path d="M6.354 5.5H4a3 3 0 0 0 0 6h3a3 3 0 0 0 2.83-4H9c-.086 0-.17.01-.25.031A2 2 0 0 1 7 10.5H4a2 2 0 1 1 0-4h1.535c.218-.376.495-.714.82-1z"></path><path d="M9 5.5a3 3 0 0 0-2.83 4h1.098A2 2 0 0 1 9 6.5h3a2 2 0 1 1 0 4h-1.535a4.02 4.02 0 0 1-.82 1H12a3 3 0 1 0 0-6H9z"></path></svg></g></g><image  id="v-305"></image></g></g><!--z-index:29--><g   id="j_41"  transform="translate(990,1015)" style=""><g  id="v-311" style="opacity: 1;"><rect  id="v-312" rx="20" ry="20" stroke-width="7" pointer-events="visiblePainted" fill="#ffffff" stroke="#0773af" stroke-dasharray="" width="450" height="300" style="fill: rgb(255, 255, 255); stroke: rgb(7, 115, 175);"></rect><text  id="v-313" font-size="33.599999999999994px" xml:space="preserve" y="120.80000000000001" font-weight="bold" text-anchor="middle" pointer-events="visible" font-family="Tahoma, Verdana, Helvetica, Arial" fill="#0773af" dominant-baseline="hanging" transform="matrix(1,0,0,1,225,0)" style="fill: rgb(7, 115, 175);"><tspan  dy="0">Status</tspan></text><text  id="v-314" font-size="16.799999999999997px" xml:space="preserve" y="162.4" text-anchor="middle" font-family="Tahoma, Verdana, Helvetica, Arial" fill="#0773af" dominant-baseline="hanging" transform="matrix(1,0,0,1,225,0)" style="display: block; fill: rgb(7, 115, 175);"><tspan  dy="0">[Container: Asp.Net Core]</tspan></text><text  id="v-315" font-size="24px" xml:space="preserve" display="none" y="120.80000000000001" text-anchor="middle" font-family="Tahoma, Verdana, Helvetica, Arial" fill="#0773af" dominant-baseline="hanging" transform="matrix(1,0,0,1,225,0)" style="display: block; fill: rgb(7, 115, 175);"><tspan style="fill-opacity: 0; stroke-opacity: 0;"  dy="0">-</tspan></text><g  id="v-316" color="#0773af" transform="matrix(1,0,0,1,210,268)" style="fill: rgb(7, 115, 175);" display="none"><g ></g><g ></g><g ></g><g  transform="translate(5 0)"><svg xmlns="http://www.w3.org/2000/svg" width="20" height="20" fill="currentColor" viewBox="0 0 16 16"><path d="M6.354 5.5H4a3 3 0 0 0 0 6h3a3 3 0 0 0 2.83-4H9c-.086 0-.17.01-.25.031A2 2 0 0 1 7 10.5H4a2 2 0 1 1 0-4h1.535c.218-.376.495-.714.82-1z"></path><path d="M9 5.5a3 3 0 0 0-2.83 4h1.098A2 2 0 0 1 9 6.5h3a2 2 0 1 1 0 4h-1.535a4.02 4.02 0 0 1-.82 1H12a3 3 0 1 0 0-6H9z"></path></svg></g></g><image  id="v-317"></image></g></g><!--z-index:30--><g   id="j_42"  transform="translate(990,660)" style=""><g  id="v-318" style="opacity: 1;"><rect  id="v-319" rx="20" ry="20" stroke-width="7" pointer-events="visiblePainted" fill="#ffffff" stroke="#0773af" stroke-dasharray="" width="450" height="300" style="fill: rgb(255, 255, 255); stroke: rgb(7, 115, 175);"></rect><text  id="v-320" font-size="33.599999999999994px" xml:space="preserve" y="120.80000000000001" font-weight="bold" text-anchor="middle" pointer-events="visible" font-family="Tahoma, Verdana, Helvetica, Arial" fill="#0773af" dominant-baseline="hanging" transform="matrix(1,0,0,1,225,0)" style="fill: rgb(7, 115, 175);"><tspan  dy="0">Admin</tspan></text><text  id="v-321" font-size="16.799999999999997px" xml:space="preserve" y="162.4" text-anchor="middle" font-family="Tahoma, Verdana, Helvetica, Arial" fill="#0773af" dominant-baseline="hanging" transform="matrix(1,0,0,1,225,0)" style="display: block; fill: rgb(7, 115, 175);"><tspan  dy="0">[Container: Blazor WASM]</tspan></text><text  id="v-322" font-size="24px" xml:space="preserve" display="none" y="120.80000000000001" text-anchor="middle" font-family="Tahoma, Verdana, Helvetica, Arial" fill="#0773af" dominant-baseline="hanging" transform="matrix(1,0,0,1,225,0)" style="display: block; fill: rgb(7, 115, 175);"><tspan style="fill-opacity: 0; stroke-opacity: 0;"  dy="0">-</tspan></text><g  id="v-323" color="#0773af" transform="matrix(1,0,0,1,210,268)" style="fill: rgb(7, 115, 175);" display="none"><g ></g><g ></g><g ></g><g  transform="translate(5 0)"><svg xmlns="http://www.w3.org/2000/svg" width="20" height="20" fill="currentColor" viewBox="0 0 16 16"><path d="M6.354 5.5H4a3 3 0 0 0 0 6h3a3 3 0 0 0 2.83-4H9c-.086 0-.17.01-.25.031A2 2 0 0 1 7 10.5H4a2 2 0 1 1 0-4h1.535c.218-.376.495-.714.82-1z"></path><path d="M9 5.5a3 3 0 0 0-2.83 4h1.098A2 2 0 0 1 9 6.5h3a2 2 0 1 1 0 4h-1.535a4.02 4.02 0 0 1-.82 1H12a3 3 0 1 0 0-6H9z"></path></svg></g></g><image  id="v-324"></image></g></g><!--z-index:31--><g   id="j_43"  transform="translate(990,210)" style=""><g  id="v-325" style="opacity: 1;"><rect  id="v-326" rx="20" ry="20" stroke-width="7" pointer-events="visiblePainted" fill="#ffffff" stroke="#0773af" stroke-dasharray="" width="450" height="300" style="fill: rgb(255, 255, 255); stroke: rgb(7, 115, 175);"></rect><text  id="v-327" font-size="33.599999999999994px" xml:space="preserve" y="120.80000000000001" font-weight="bold" text-anchor="middle" pointer-events="visible" font-family="Tahoma, Verdana, Helvetica, Arial" fill="#0773af" dominant-baseline="hanging" transform="matrix(1,0,0,1,225,0)" style="fill: rgb(7, 115, 175);"><tspan  dy="0">Portal</tspan></text><text  id="v-328" font-size="16.799999999999997px" xml:space="preserve" y="162.4" text-anchor="middle" font-family="Tahoma, Verdana, Helvetica, Arial" fill="#0773af" dominant-baseline="hanging" transform="matrix(1,0,0,1,225,0)" style="display: block; fill: rgb(7, 115, 175);"><tspan  dy="0">[Container: Blazor WASM]</tspan></text><text  id="v-329" font-size="24px" xml:space="preserve" display="none" y="120.80000000000001" text-anchor="middle" font-family="Tahoma, Verdana, Helvetica, Arial" fill="#0773af" dominant-baseline="hanging" transform="matrix(1,0,0,1,225,0)" style="display: block; fill: rgb(7, 115, 175);"><tspan style="fill-opacity: 0; stroke-opacity: 0;"  dy="0">-</tspan></text><g  id="v-330" color="#0773af" transform="matrix(1,0,0,1,210,268)" style="fill: rgb(7, 115, 175);" display="none"><g ></g><g ></g><g ></g><g  transform="translate(5 0)"><svg xmlns="http://www.w3.org/2000/svg" width="20" height="20" fill="currentColor" viewBox="0 0 16 16"><path d="M6.354 5.5H4a3 3 0 0 0 0 6h3a3 3 0 0 0 2.83-4H9c-.086 0-.17.01-.25.031A2 2 0 0 1 7 10.5H4a2 2 0 1 1 0-4h1.535c.218-.376.495-.714.82-1z"></path><path d="M9 5.5a3 3 0 0 0-2.83 4h1.098A2 2 0 0 1 9 6.5h3a2 2 0 1 1 0 4h-1.535a4.02 4.02 0 0 1-.82 1H12a3 3 0 1 0 0-6H9z"></path></svg></g></g><image  id="v-331"></image></g></g><!--z-index:32--><g   id="j_44"  transform="translate(2570,1015)" style=""><g  id="v-332" style="opacity: 1;"><rect  id="v-333" rx="20" ry="20" stroke-width="7" pointer-events="visiblePainted" fill="#ffffff" stroke="#0773af" stroke-dasharray="" width="450" height="300" style="fill: rgb(255, 255, 255); stroke: rgb(7, 115, 175);"></rect><text  id="v-334" font-size="33.599999999999994px" xml:space="preserve" y="120.80000000000001" font-weight="bold" text-anchor="middle" pointer-events="visible" font-family="Tahoma, Verdana, Helvetica, Arial" fill="#0773af" dominant-baseline="hanging" transform="matrix(1,0,0,1,225,0)" style="fill: rgb(7, 115, 175);"><tspan  dy="0">KeyCloak</tspan></text><text  id="v-335" font-size="16.799999999999997px" xml:space="preserve" y="162.4" text-anchor="middle" font-family="Tahoma, Verdana, Helvetica, Arial" fill="#0773af" dominant-baseline="hanging" transform="matrix(1,0,0,1,225,0)" style="display: block; fill: rgb(7, 115, 175);"><tspan  dy="0">[Container: Java]</tspan></text><text  id="v-336" font-size="24px" xml:space="preserve" display="none" y="120.80000000000001" text-anchor="middle" font-family="Tahoma, Verdana, Helvetica, Arial" fill="#0773af" dominant-baseline="hanging" transform="matrix(1,0,0,1,225,0)" style="display: block; fill: rgb(7, 115, 175);"><tspan style="fill-opacity: 0; stroke-opacity: 0;"  dy="0">-</tspan></text><g  id="v-337" color="#0773af" transform="matrix(1,0,0,1,210,268)" style="fill: rgb(7, 115, 175);" display="none"><g ></g><g ></g><g ></g><g  transform="translate(5 0)"><svg xmlns="http://www.w3.org/2000/svg" width="20" height="20" fill="currentColor" viewBox="0 0 16 16"><path d="M6.354 5.5H4a3 3 0 0 0 0 6h3a3 3 0 0 0 2.83-4H9c-.086 0-.17.01-.25.031A2 2 0 0 1 7 10.5H4a2 2 0 1 1 0-4h1.535c.218-.376.495-.714.82-1z"></path><path d="M9 5.5a3 3 0 0 0-2.83 4h1.098A2 2 0 0 1 9 6.5h3a2 2 0 1 1 0 4h-1.535a4.02 4.02 0 0 1-.82 1H12a3 3 0 1 0 0-6H9z"></path></svg></g></g><image  id="v-338"></image></g></g><!--z-index:33--><g   id="j_45"  transform="translate(2550,570)" style=""><g  id="v-339" style="opacity: 1;"><path  d="M 0,30 a 225,30 0,0,0 450 0 a 225,30 0,0,0 -450 0 l 0,240 a 225,30 0,0,0 450 0 l 0,-240" id="v-340" stroke-width="7" pointer-events="visiblePainted" fill="#ffffff" stroke="#0773af" stroke-dasharray="" style="fill: rgb(255, 255, 255); stroke: rgb(7, 115, 175);"></path><rect  id="v-341" stroke-width="0" pointer-events="visiblePainted" fill="none" stroke="none" width="450" height="270" x="0" y="30"></rect><text  id="v-342" font-size="33.599999999999994px" xml:space="preserve" y="135.8" font-weight="bold" text-anchor="middle" pointer-events="visible" font-family="Tahoma, Verdana, Helvetica, Arial" fill="#0773af" dominant-baseline="hanging" transform="matrix(1,0,0,1,225,0)" style="fill: rgb(7, 115, 175);"><tspan  dy="0">Database Schema</tspan></text><text  id="v-343" font-size="16.799999999999997px" xml:space="preserve" y="177.4" text-anchor="middle" font-family="Tahoma, Verdana, Helvetica, Arial" fill="#0773af" dominant-baseline="hanging" transform="matrix(1,0,0,1,225,0)" style="display: block; fill: rgb(7, 115, 175);"><tspan  dy="0">[Container: Postgresql]</tspan></text><text  id="v-344" font-size="24px" xml:space="preserve" display="none" y="135.8" text-anchor="middle" font-family="Tahoma, Verdana, Helvetica, Arial" fill="#0773af" dominant-baseline="hanging" transform="matrix(1,0,0,1,225,0)" style="display: block; fill: rgb(7, 115, 175);"><tspan style="fill-opacity: 0; stroke-opacity: 0;"  dy="0">-</tspan></text><g  id="v-345" font-weight="normal" text-anchor="middle" color="#0773af" transform="matrix(1,0,0,1,210,268)" style="fill: rgb(7, 115, 175);" display="none"><g ></g><g ></g><g ></g><g  transform="translate(5 0)"><svg xmlns="http://www.w3.org/2000/svg" width="20" height="20" fill="currentColor" viewBox="0 0 16 16"><path d="M6.354 5.5H4a3 3 0 0 0 0 6h3a3 3 0 0 0 2.83-4H9c-.086 0-.17.01-.25.031A2 2 0 0 1 7 10.5H4a2 2 0 1 1 0-4h1.535c.218-.376.495-.714.82-1z"></path><path d="M9 5.5a3 3 0 0 0-2.83 4h1.098A2 2 0 0 1 9 6.5h3a2 2 0 1 1 0 4h-1.535a4.02 4.02 0 0 1-.82 1H12a3 3 0 1 0 0-6H9z"></path></svg></g></g><image  id="v-346"></image></g></g><!--z-index:34--><g   id="j_46"  transform="translate(1770,1550)" style=""><g  id="v-347" style="opacity: 1;"><rect  id="v-348" rx="20" ry="20" stroke-width="7" pointer-events="visiblePainted" fill="#ffffff" stroke="#0773af" stroke-dasharray="" width="450" height="300" style="fill: rgb(255, 255, 255); stroke: rgb(7, 115, 175);"></rect><text  id="v-349" font-size="33.599999999999994px" xml:space="preserve" y="101.30000000000001" font-weight="bold" text-anchor="middle" pointer-events="visible" font-family="Tahoma, Verdana, Helvetica, Arial" fill="#0773af" dominant-baseline="hanging" transform="matrix(1,0,0,1,225,0)" style="fill: rgb(7, 115, 175);"><tspan  dy="0">OvhCloud</tspan></text><text  id="v-350" font-size="16.799999999999997px" xml:space="preserve" y="142.9" text-anchor="middle" font-family="Tahoma, Verdana, Helvetica, Arial" fill="#0773af" dominant-baseline="hanging" transform="matrix(1,0,0,1,225,0)" style="display: block; fill: rgb(7, 115, 175);"><tspan  dy="0">[Software System]</tspan></text><text  id="v-351" font-size="24px" xml:space="preserve" y="174.7" text-anchor="middle" font-family="Tahoma, Verdana, Helvetica, Arial" fill="#0773af" dominant-baseline="hanging" transform="matrix(1,0,0,1,225,0)" style="display: block; fill: rgb(7, 115, 175);"><tspan  dy="0">Cloud Service</tspan></text><g  id="v-352" color="#0773af" transform="matrix(1,0,0,1,222.5,268)" style="fill: rgb(7, 115, 175);" display="none"><g ></g><g ></g><g ></g><g ></g></g><image  id="v-353"></image></g></g><!--z-index:35--><g   id="j_47"  transform="translate(3145,615)" style=""><g  id="v-354" style="opacity: 1;"><rect  id="v-355" rx="20" ry="20" stroke-width="7" pointer-events="visiblePainted" fill="#ffffff" stroke="#0773af" stroke-dasharray="" width="450" height="300" style="fill: rgb(255, 255, 255); stroke: rgb(7, 115, 175);"></rect><text  id="v-356" font-size="33.599999999999994px" xml:space="preserve" y="101.30000000000001" font-weight="bold" text-anchor="middle" pointer-events="visible" font-family="Tahoma, Verdana, Helvetica, Arial" fill="#0773af" dominant-baseline="hanging" transform="matrix(1,0,0,1,225,0)" style="fill: rgb(7, 115, 175);"><tspan  dy="0">Proton</tspan></text><text  id="v-357" font-size="16.799999999999997px" xml:space="preserve" y="142.9" text-anchor="middle" font-family="Tahoma, Verdana, Helvetica, Arial" fill="#0773af" dominant-baseline="hanging" transform="matrix(1,0,0,1,225,0)" style="display: block; fill: rgb(7, 115, 175);"><tspan  dy="0">[Software System]</tspan></text><text  id="v-358" font-size="24px" xml:space="preserve" y="174.7" text-anchor="middle" font-family="Tahoma, Verdana, Helvetica, Arial" fill="#0773af" dominant-baseline="hanging" transform="matrix(1,0,0,1,225,0)" style="display: block; fill: rgb(7, 115, 175);"><tspan  dy="0">Mail Service</tspan></text><g  id="v-359" color="#0773af" transform="matrix(1,0,0,1,222.5,268)" style="fill: rgb(7, 115, 175);" display="none"><g ></g><g ></g><g ></g><g ></g></g><image  id="v-360"></image></g></g><!--z-index:36--><g   id="j_48"  style="opacity: 1;"><path fill="none" cursor="pointer" stroke="transparent" stroke-linecap="round" joint-selector="wrapper" id="v-369" stroke-width="10" stroke-linejoin="round" d="M 600 360 L 990 360"></path><path fill="none" pointer-events="none" joint-selector="line" id="v-368" stroke="#444444" stroke-width="4" stroke-linejoin="round" stroke-dasharray="16 16" d="M 600 360 L 990 360" marker-end="url(#v-2633353823)"></path><g id="v-361" ><g id="v-362"  label-idx="0" cursor="move" transform="matrix(1,0,0,1,795,360)" style="cursor: default;"><rect joint-selector="rect" id="v-365" fill="#ffffff" rx="3" ry="3" x="-27.899999618530273" y="-18.299999237060547" width="55.79999923706055" height="31.5" pointer-events="none"  style="display: block;"></rect><text joint-selector="text" id="v-364" font-size="24px" xml:space="preserve" fill="#444444" text-anchor="middle" pointer-events="none" font-family="Tahoma, Verdana, Helvetica, Arial" font-weight="normal"  style="display: block;"><tspan  dy="0.3em">Uses</tspan></text></g><g id="v-363"  label-idx="1" cursor="move" transform="matrix(1,0,0,1,785,372)" style="cursor: default;"><rect joint-selector="rect" id="v-367" fill="#ffffff" rx="3" ry="3" x="1.1368683772161603e-13" y="5.684341886080802e-14" width="0" height="0"  display="none"></rect><text joint-selector="text" id="v-366" fill="#000000" font-size="14" text-anchor="middle" text-vertical-anchor="middle" pointer-events="none"></text></g></g></g><!--z-index:37--><g   id="j_49"  style="opacity: 1;"><path fill="none" cursor="pointer" stroke="transparent" stroke-linecap="round" joint-selector="wrapper" id="v-378" stroke-width="10" stroke-linejoin="round" d="M 600 810 L 990 810"></path><path fill="none" pointer-events="none" joint-selector="line" id="v-377" stroke="#444444" stroke-width="4" stroke-linejoin="round" stroke-dasharray="16 16" d="M 600 810 L 990 810" marker-end="url(#v-2633353823)"></path><g id="v-370" ><g id="v-371"  label-idx="0" cursor="move" transform="matrix(1,0,0,1,795,810)" style="cursor: default;"><rect joint-selector="rect" id="v-374" fill="#ffffff" rx="3" ry="3" x="-27.899999618530273" y="-18.299999237060547" width="55.79999923706055" height="31.5" pointer-events="none"  style="display: block;"></rect><text joint-selector="text" id="v-373" font-size="24px" xml:space="preserve" fill="#444444" text-anchor="middle" pointer-events="none" font-family="Tahoma, Verdana, Helvetica, Arial" font-weight="normal"  style="display: block;"><tspan  dy="0.3em">Uses</tspan></text></g><g id="v-372"  label-idx="1" cursor="move" transform="matrix(1,0,0,1,785,822)" style="cursor: default;"><rect joint-selector="rect" id="v-376" fill="#ffffff" rx="3" ry="3" x="1.1368683772161603e-13" y="5.684341886080802e-14" width="0" height="0"  display="none"></rect><text joint-selector="text" id="v-375" fill="#000000" font-size="14" text-anchor="middle" text-vertical-anchor="middle" pointer-events="none"></text></g></g></g><!--z-index:38--><g   id="j_50"  style="opacity: 1;"><path fill="none" cursor="pointer" stroke="transparent" stroke-linecap="round" joint-selector="wrapper" id="v-387" stroke-width="10" stroke-linejoin="round" d="M 1440 360 L 1600 360 C 1606.6666666666665 360 1612.3333333333333 362.66666666666663 1617 368 L 1873.33 660"></path><path fill="none" pointer-events="none" joint-selector="line" id="v-386" stroke="#444444" stroke-width="4" stroke-linejoin="round" stroke-dasharray="16 16" d="M 1440 360 L 1600 360 C 1606.6666666666665 360 1612.3333333333333 362.66666666666663 1617 368 L 1873.33 660" marker-end="url(#v-2633353823)"></path><g id="v-379" ><g id="v-380"  label-idx="0" cursor="move" transform="matrix(1,0,0,1,1685.9849853515625,446.5846862792969)" style="cursor: default;"><rect joint-selector="rect" id="v-383" fill="#ffffff" rx="3" ry="3" x="-27.899999618530273" y="-18.299999237060547" width="55.79999923706055" height="31.5" pointer-events="none"  style="display: block;"></rect><text joint-selector="text" id="v-382" font-size="24px" xml:space="preserve" fill="#444444" text-anchor="middle" pointer-events="none" font-family="Tahoma, Verdana, Helvetica, Arial" font-weight="normal"  style="display: block;"><tspan  dy="0.3em">Uses</tspan></text></g><g id="v-381"  label-idx="1" cursor="move" transform="matrix(1,0,0,1,1675.9849853515625,458.5846862792969)" style="cursor: default;"><rect joint-selector="rect" id="v-385" fill="#ffffff" rx="3" ry="3" x="1.1368683772161603e-13" y="5.684341886080802e-14" width="0" height="0"  display="none"></rect><text joint-selector="text" id="v-384" fill="#000000" font-size="14" text-anchor="middle" text-vertical-anchor="middle" pointer-events="none"></text></g></g></g><!--z-index:39--><g   id="j_51"  style="opacity: 1;"><path fill="none" cursor="pointer" stroke="transparent" stroke-linecap="round" joint-selector="wrapper" id="v-396" stroke-width="10" stroke-linejoin="round" d="M 1440 810 L 1780 810"></path><path fill="none" pointer-events="none" joint-selector="line" id="v-395" stroke="#444444" stroke-width="4" stroke-linejoin="round" stroke-dasharray="16 16" d="M 1440 810 L 1780 810" marker-end="url(#v-2633353823)"></path><g id="v-388" ><g id="v-389"  label-idx="0" cursor="move" transform="matrix(1,0,0,1,1610,810)" style="cursor: default;"><rect joint-selector="rect" id="v-392" fill="#ffffff" rx="3" ry="3" x="-27.899999618530273" y="-18.299999237060547" width="55.79999923706055" height="31.5" pointer-events="none"  style="display: block;"></rect><text joint-selector="text" id="v-391" font-size="24px" xml:space="preserve" fill="#444444" text-anchor="middle" pointer-events="none" font-family="Tahoma, Verdana, Helvetica, Arial" font-weight="normal"  style="display: block;"><tspan  dy="0.3em">Uses</tspan></text></g><g id="v-390"  label-idx="1" cursor="move" transform="matrix(1,0,0,1,1600,822)" style="cursor: default;"><rect joint-selector="rect" id="v-394" fill="#ffffff" rx="3" ry="3" x="1.1368683772161603e-13" y="5.684341886080802e-14" width="0" height="0"  display="none"></rect><text joint-selector="text" id="v-393" fill="#000000" font-size="14" text-anchor="middle" text-vertical-anchor="middle" pointer-events="none"></text></g></g></g><!--z-index:40--><g   id="j_52"  style="opacity: 1;"><path fill="none" cursor="pointer" stroke="transparent" stroke-linecap="round" joint-selector="wrapper" id="v-408" stroke-width="10" stroke-linejoin="round" d="M 1440 1165 L 1600 1165 C 1606.6666666666665 1165 1612.3333333333333 1162.6666666666665 1617 1158 L 1838.1 960"></path><path fill="none" pointer-events="none" joint-selector="line" id="v-407" stroke="#444444" stroke-width="4" stroke-linejoin="round" stroke-dasharray="16 16" d="M 1440 1165 L 1600 1165 C 1606.6666666666665 1165 1612.3333333333333 1162.6666666666665 1617 1158 L 1838.1 960" marker-end="url(#v-2633353823)"></path><g id="v-400" ><g id="v-401"  label-idx="0" cursor="move" transform="matrix(1,0,0,1,1660.915771484375,1118.6724853515625)" style="cursor: default;"><rect joint-selector="rect" id="v-404" fill="#ffffff" rx="3" ry="3" x="-71.0250015258789" y="-18.299999237060547" width="143.0500030517578" height="31.5" pointer-events="none"  style="display: block;"></rect><text joint-selector="text" id="v-403" font-size="24px" xml:space="preserve" fill="#444444" text-anchor="middle" pointer-events="none" font-family="Tahoma, Verdana, Helvetica, Arial" font-weight="normal"  style="display: block;"><tspan  dy="0.3em">Health check</tspan></text></g><g id="v-402"  label-idx="1" cursor="move" transform="matrix(1,0,0,1,1650.915771484375,1130.6724853515625)" style="cursor: default;"><rect joint-selector="rect" id="v-406" fill="#ffffff" rx="3" ry="3" x="1.1368683772161603e-13" y="5.684341886080802e-14" width="0" height="0"  display="none"></rect><text joint-selector="text" id="v-405" fill="#000000" font-size="14" text-anchor="middle" text-vertical-anchor="middle" pointer-events="none"></text></g></g></g><!--z-index:41--><g   id="j_53"  style="opacity: 1;"><path fill="none" cursor="pointer" stroke="transparent" stroke-linecap="round" joint-selector="wrapper" id="v-417" stroke-width="10" stroke-linejoin="round" d="M 2171.9 960 L 2393 1158 C 2397.6666666666665 1162.6666666666665 2403.333333333333 1165 2410 1165 L 2570 1165"></path><path fill="none" pointer-events="none" joint-selector="line" id="v-416" stroke="#444444" stroke-width="4" stroke-linejoin="round" stroke-dasharray="16 16" d="M 2171.9 960 L 2393 1158 C 2397.6666666666665 1162.6666666666665 2403.333333333333 1165 2410 1165 L 2570 1165" marker-end="url(#v-2633353823)"></path><g id="v-409" ><g id="v-410"  label-idx="0" cursor="move" transform="matrix(1,0,0,1,2349.084228515625,1118.6724853515625)" style="cursor: default;"><rect joint-selector="rect" id="v-413" fill="#ffffff" rx="3" ry="3" x="-53" y="-18.299999237060547" width="105.75" height="31.5" pointer-events="none"  style="display: block;"></rect><text joint-selector="text" id="v-412" font-size="24px" xml:space="preserve" fill="#444444" text-anchor="middle" pointer-events="none" font-family="Tahoma, Verdana, Helvetica, Arial" font-weight="normal"  style="display: block;"><tspan  dy="0.3em">Authorize</tspan></text></g><g id="v-411"  label-idx="1" cursor="move" transform="matrix(1,0,0,1,2339.084228515625,1130.6724853515625)" style="cursor: default;"><rect joint-selector="rect" id="v-415" fill="#ffffff" rx="3" ry="3" x="1.1368683772161603e-13" y="5.684341886080802e-14" width="0" height="0"  display="none"></rect><text joint-selector="text" id="v-414" fill="#000000" font-size="14" text-anchor="middle" text-vertical-anchor="middle" pointer-events="none"></text></g></g></g><!--z-index:42--><g   id="j_54"  style="opacity: 1;"><path fill="none" cursor="pointer" stroke="transparent" stroke-linecap="round" joint-selector="wrapper" id="v-429" stroke-width="10" stroke-linejoin="round" d="M 2119.71 660 L 2129 648 C 2133 642.6666666666666 2137.6666666666665 638 2143 634 L 2167 616 C 2172.333333333333 612 2178.333333333333 610 2185 610 L 2230 610 C 2236.6666666666665 610 2243.333333333333 610.6666666666666 2250 612 L 2550 673.74"></path><path fill="none" pointer-events="none" joint-selector="line" id="v-428" stroke="#444444" stroke-width="4" stroke-linejoin="round" stroke-dasharray="16 16" d="M 2119.71 660 L 2129 648 C 2133 642.6666666666666 2137.6666666666665 638 2143 634 L 2167 616 C 2172.333333333333 612 2178.333333333333 610 2185 610 L 2230 610 C 2236.6666666666665 610 2243.333333333333 610.6666666666666 2250 612 L 2550 673.74" marker-end="url(#v-2633353823)"></path><g id="v-421" ><g id="v-422"  label-idx="0" cursor="move" transform="matrix(1,0,0,1,2326.79296875,627.8040161132812)" style="cursor: default;"><rect joint-selector="rect" id="v-425" fill="#ffffff" rx="3" ry="3" x="-86.57499694824219" y="-32.70000076293945" width="173.14999389648438" height="60.30000305175781" pointer-events="none"  style="display: block;"></rect><text joint-selector="text" id="v-424" font-size="24px" xml:space="preserve" fill="#444444" text-anchor="middle" pointer-events="none" font-family="Tahoma, Verdana, Helvetica, Arial" font-weight="normal"  style="display: block;"><tspan  dy="-0.3em">Reads from and</tspan><tspan dy="1.2em" x="0" >writes to</tspan></text></g><g id="v-423"  label-idx="1" cursor="move" transform="matrix(1,0,0,1,2316.79296875,654.2039794921875)" style="cursor: default;"><rect joint-selector="rect" id="v-427" fill="#ffffff" rx="3" ry="3" x="1.1368683772161603e-13" y="5.684341886080802e-14" width="0" height="0"  display="none"></rect><text joint-selector="text" id="v-426" fill="#000000" font-size="14" text-anchor="middle" text-vertical-anchor="middle" pointer-events="none"></text></g></g></g><!--z-index:43--><g   id="j_55"  style="opacity: 1;"><path fill="none" cursor="pointer" stroke="transparent" stroke-linecap="round" joint-selector="wrapper" id="v-441" stroke-width="10" stroke-linejoin="round" d="M 2005 960 L 2005 1260 C 2004.9999999999998 1266.6666666666665 2004.9999999999998 1273.3333333333333 2005 1280 L 1998.49 1550"></path><path fill="none" pointer-events="none" joint-selector="line" id="v-440" stroke="#444444" stroke-width="4" stroke-linejoin="round" stroke-dasharray="16 16" d="M 2005 960 L 2005 1260 C 2004.9999999999998 1266.6666666666665 2004.9999999999998 1273.3333333333333 2005 1280 L 1998.49 1550" marker-end="url(#v-2633353823)"></path><g id="v-433" ><g id="v-434"  label-idx="0" cursor="move" transform="matrix(1,0,0,1,2005,1255.0391845703125)" style="cursor: default;"><rect joint-selector="rect" id="v-437" fill="#ffffff" rx="3" ry="3" x="-89.19999694824219" y="-32.70000076293945" width="178.39999389648438" height="60.30000305175781" pointer-events="none"  style="display: block;"></rect><text joint-selector="text" id="v-436" font-size="24px" xml:space="preserve" fill="#444444" text-anchor="middle" pointer-events="none" font-family="Tahoma, Verdana, Helvetica, Arial" font-weight="normal"  style="display: block;"><tspan  dy="-0.3em">Downloads from</tspan><tspan dy="1.2em" x="0" >and uploads to</tspan></text></g><g id="v-435"  label-idx="1" cursor="move" transform="matrix(1,0,0,1,1995,1281.439208984375)" style="cursor: default;"><rect joint-selector="rect" id="v-439" fill="#ffffff" rx="3" ry="3" x="1.1368683772161603e-13" y="5.684341886080802e-14" width="0" height="0"  display="none"></rect><text joint-selector="text" id="v-438" fill="#000000" font-size="14" text-anchor="middle" text-vertical-anchor="middle" pointer-events="none"></text></g></g></g><!--z-index:44--><g   id="j_56"  style="opacity: 1;"><path fill="none" cursor="pointer" stroke="transparent" stroke-linecap="round" joint-selector="wrapper" id="v-450" stroke-width="10" stroke-linejoin="round" d="M 2043.41 660 L 2108 410 C 2109.333333333333 403.33333333333326 2113.333333333333 399.99999999999994 2120 400 L 2830 400 C 2836.6666666666665 399.99999999999994 2843.333333333333 400.33333333333326 2850 401 L 3175 444 C 3181.666666666666 444.66666666666663 3186.666666666666 447.99999999999994 3190 454 L 3283.28 615"></path><path fill="none" pointer-events="none" joint-selector="line" id="v-449" stroke="#444444" stroke-width="4" stroke-linejoin="round" stroke-dasharray="16 16" d="M 2043.41 660 L 2108 410 C 2109.333333333333 403.33333333333326 2113.333333333333 399.99999999999994 2120 400 L 2830 400 C 2836.6666666666665 399.99999999999994 2843.333333333333 400.33333333333326 2850 401 L 3175 444 C 3181.666666666666 444.66666666666663 3186.666666666666 447.99999999999994 3190 454 L 3283.28 615" marker-end="url(#v-2633353823)"></path><g id="v-442" ><g id="v-443"  label-idx="0" cursor="move" transform="matrix(1,0,0,1,2613.6611328125,400)" style="cursor: default;"><rect joint-selector="rect" id="v-446" fill="#ffffff" rx="3" ry="3" x="-60.32500076293945" y="-18.299999237060547" width="120.6500015258789" height="31.5" pointer-events="none"  style="display: block;"></rect><text joint-selector="text" id="v-445" font-size="24px" xml:space="preserve" fill="#444444" text-anchor="middle" pointer-events="none" font-family="Tahoma, Verdana, Helvetica, Arial" font-weight="normal"  style="display: block;"><tspan  dy="0.3em">Sends mail</tspan></text></g><g id="v-444"  label-idx="1" cursor="move" transform="matrix(1,0,0,1,2603.6611328125,412)" style="cursor: default;"><rect joint-selector="rect" id="v-448" fill="#ffffff" rx="3" ry="3" x="1.1368683772161603e-13" y="5.684341886080802e-14" width="0" height="0"  display="none"></rect><text joint-selector="text" id="v-447" fill="#000000" font-size="14" text-anchor="middle" text-vertical-anchor="middle" pointer-events="none"></text></g></g></g><!--z-index:45--><g   id="j_57"  style="opacity: 1;"><path fill="none" cursor="pointer" stroke="transparent" stroke-linecap="round" joint-selector="wrapper" id="v-459" stroke-width="10" stroke-linejoin="round" d="M 3020 1165 L 3230 1165 C 3236.6666666666665 1165 3241 1161.6666666666665 3243 1155 L 3321.25 915"></path><path fill="none" pointer-events="none" joint-selector="line" id="v-458" stroke="#444444" stroke-width="4" stroke-linejoin="round" stroke-dasharray="16 16" d="M 3020 1165 L 3230 1165 C 3236.6666666666665 1165 3241 1161.6666666666665 3243 1155 L 3321.25 915" marker-end="url(#v-2633353823)"></path><g id="v-451" ><g id="v-452"  label-idx="0" cursor="move" transform="matrix(1,0,0,1,3246.817626953125,1143.290771484375)" style="cursor: default;"><rect joint-selector="rect" id="v-455" fill="#ffffff" rx="3" ry="3" x="-60.32500076293945" y="-18.299999237060547" width="120.6500015258789" height="31.5" pointer-events="none"  style="display: block;"></rect><text joint-selector="text" id="v-454" font-size="24px" xml:space="preserve" fill="#444444" text-anchor="middle" pointer-events="none" font-family="Tahoma, Verdana, Helvetica, Arial" font-weight="normal"  style="display: block;"><tspan  dy="0.3em">Sends mail</tspan></text></g><g id="v-453"  label-idx="1" cursor="move" transform="matrix(1,0,0,1,3236.817626953125,1155.290771484375)" style="cursor: default;"><rect joint-selector="rect" id="v-457" fill="#ffffff" rx="3" ry="3" x="1.1368683772161603e-13" y="5.684341886080802e-14" width="0" height="0"  display="none"></rect><text joint-selector="text" id="v-456" fill="#000000" font-size="14" text-anchor="middle" text-vertical-anchor="middle" pointer-events="none"></text></g></g></g><!--z-index:46--></g><g  style="user-select: none;"></g><g ></g><g  display="none"></g></g></svg>