<svg xmlns="http://www.w3.org/2000/svg" xmlns:xlink="http://www.w3.org/1999/xlink" version="1.1" style="background: #ffffff" viewBox="0 0 3270 1601"><style id="v-3" type="text/css">        .joint-element .scalable * {            vector-effect: non-scaling-stroke;        }    </style><defs joint-selector="defs"><marker id="v-2633353823" orient="auto" overflow="visible" markerUnits="userSpaceOnUse"><path id="v-86" stroke="#444444" fill="#444444" transform="rotate(180)" d="M 40 -20 0 0 40 20 Z"></path></marker></defs><g  joint-selector="layers" transform="matrix(1,0,0,1,0,0)"><g style="pointer-events: none;" ></g><g ></g><g  style="user-select: none;"><!--z-index:1--><!--z-index:2--><!--z-index:3--><!--z-index:4--><!--z-index:5--><!--z-index:6--><!--z-index:7--><!--z-index:8--><!--z-index:9--><!--z-index:10--><!--z-index:11--><!--z-index:12--><!--z-index:13--><!--z-index:14--><!--z-index:15--><!--z-index:16--><!--z-index:17--><!--z-index:18--><g   id="j_83"  transform="translate(20,1557)"><g id="v-635"><text  id="v-636" font-size="24px" xml:space="preserve" y="0.8em" font-weight="normal" text-anchor="start" fill="#444444" pointer-events="none" display="block" font-family="Tahoma, Verdana, Helvetica, Arial"><tspan  dy="0">Saturday, May 30, 2026 at 11:52 AM Central European Summer Time</tspan></text></g></g><!--z-index:19--><g   id="j_82"  transform="translate(20,1511)"><g id="v-633"><text  id="v-634" font-size="36px" xml:space="preserve" y="0.8em" font-weight="normal" text-anchor="start" fill="#444444" pointer-events="none" display="block" font-family="Tahoma, Verdana, Helvetica, Arial"><tspan  dy="0">Container View: Byakko</tspan></text></g></g><!--z-index:20--><g   id="j_84"  transform="translate(200,161)" style=""><g  id="v-637" style="opacity: 1;"><rect  x="0" y="160" width="400" height="240" rx="70" id="v-639" stroke-width="7" pointer-events="visiblePainted" fill="#ffffff" stroke="#0773af" stroke-dasharray="" style="fill: rgb(255, 255, 255); stroke: rgb(7, 115, 175);"></rect><circle  cx="200" cy="88.88888888888889" r="88.88888888888889" id="v-638" stroke-width="7" pointer-events="visiblePainted" fill="#ffffff" stroke="#0773af" stroke-dasharray="" style="fill: rgb(255, 255, 255); stroke: rgb(7, 115, 175);"></circle><line  x1="80" y1="266.6666666666667" x2="80" y2="400" id="v-645" stroke="#0773af" stroke-width="1" stroke-dasharray="" style="stroke: rgb(7, 115, 175);"></line><line  x1="320" y1="266.6666666666667" x2="320" y2="400" id="v-646" stroke="#0773af" stroke-width="1" stroke-dasharray="" style="stroke: rgb(7, 115, 175);"></line><text  id="v-640" font-size="33.599999999999994px" xml:space="preserve" y="250.8" font-weight="bold" text-anchor="middle" pointer-events="visible" font-family="Tahoma, Verdana, Helvetica, Arial" fill="#0773af" dominant-baseline="hanging" transform="matrix(1,0,0,1,200,0)" style="fill: rgb(7, 115, 175);"><tspan  dy="0">User</tspan></text><text  id="v-641" font-size="16.799999999999997px" xml:space="preserve" y="292.4" text-anchor="middle" font-family="Tahoma, Verdana, Helvetica, Arial" fill="#0773af" dominant-baseline="hanging" transform="matrix(1,0,0,1,200,0)" style="display: block; fill: rgb(7, 115, 175);"><tspan  dy="0">[Person]</tspan></text><text  id="v-642" font-size="24px" xml:space="preserve" display="none" y="250.8" text-anchor="middle" font-family="Tahoma, Verdana, Helvetica, Arial" fill="#0773af" dominant-baseline="hanging" transform="matrix(1,0,0,1,200,0)" style="display: block; fill: rgb(7, 115, 175);"><tspan style="fill-opacity: 0; stroke-opacity: 0;"  dy="0">-</tspan></text><g  id="v-643" font-weight="normal" text-anchor="middle" color="#0773af" transform="matrix(1,0,0,1,197.5,368)" style="fill: rgb(7, 115, 175);" display="none"><g ></g><g ></g><g ></g><g ></g></g><image  id="v-644"></image></g></g><!--z-index:21--><g   id="j_85"  transform="translate(200,611)" style=""><g  id="v-647" style="opacity: 1;"><rect  x="0" y="160" width="400" height="240" rx="70" id="v-649" stroke-width="7" pointer-events="visiblePainted" fill="#ffffff" stroke="#0773af" stroke-dasharray="" style="fill: rgb(255, 255, 255); stroke: rgb(7, 115, 175);"></rect><circle  cx="200" cy="88.88888888888889" r="88.88888888888889" id="v-648" stroke-width="7" pointer-events="visiblePainted" fill="#ffffff" stroke="#0773af" stroke-dasharray="" style="fill: rgb(255, 255, 255); stroke: rgb(7, 115, 175);"></circle><line  x1="80" y1="266.6666666666667" x2="80" y2="400" id="v-655" stroke="#0773af" stroke-width="1" stroke-dasharray="" style="stroke: rgb(7, 115, 175);"></line><line  x1="320" y1="266.6666666666667" x2="320" y2="400" id="v-656" stroke="#0773af" stroke-width="1" stroke-dasharray="" style="stroke: rgb(7, 115, 175);"></line><text  id="v-650" font-size="33.599999999999994px" xml:space="preserve" y="250.8" font-weight="bold" text-anchor="middle" pointer-events="visible" font-family="Tahoma, Verdana, Helvetica, Arial" fill="#0773af" dominant-baseline="hanging" transform="matrix(1,0,0,1,200,0)" style="fill: rgb(7, 115, 175);"><tspan  dy="0">Administrator</tspan></text><text  id="v-651" font-size="16.799999999999997px" xml:space="preserve" y="292.4" text-anchor="middle" font-family="Tahoma, Verdana, Helvetica, Arial" fill="#0773af" dominant-baseline="hanging" transform="matrix(1,0,0,1,200,0)" style="display: block; fill: rgb(7, 115, 175);"><tspan  dy="0">[Person]</tspan></text><text  id="v-652" font-size="24px" xml:space="preserve" display="none" y="250.8" text-anchor="middle" font-family="Tahoma, Verdana, Helvetica, Arial" fill="#0773af" dominant-baseline="hanging" transform="matrix(1,0,0,1,200,0)" style="display: block; fill: rgb(7, 115, 175);"><tspan style="fill-opacity: 0; stroke-opacity: 0;"  dy="0">-</tspan></text><g  id="v-653" font-weight="normal" text-anchor="middle" color="#0773af" transform="matrix(1,0,0,1,197.5,368)" style="fill: rgb(7, 115, 175);" display="none"><g ></g><g ></g><g ></g><g ></g></g><image  id="v-654"></image></g></g><!--z-index:22--><g   id="j_87"  transform="translate(940,159)" style="; opacity: 1;"><g id="v-664"><rect  id="v-665" width="2130" height="931" rx="20" ry="20" stroke-width="5" pointer-events="none" stroke="#0773af" fill="#ffffff" opacity="1" stroke-dasharray=""></rect><text  id="v-666" font-size="33.599999999999994px" xml:space="preserve" y="892" font-weight="bold" text-anchor="start" pointer-events="visible" font-family="Tahoma, Verdana, Helvetica, Arial" fill="#0773af" transform="matrix(1,0,0,1,15,0)"><tspan  dy="0">Byakko</tspan></text><text  id="v-667" font-size="16.799999999999997px" xml:space="preserve" y="916" font-weight="normal" text-anchor="start" pointer-events="visible" font-family="Tahoma, Verdana, Helvetica, Arial" fill="#0773af" transform="matrix(1,0,0,1,15,0)"><tspan  dy="0">[Software System]</tspan></text><image  id="v-668" pointer-events="visible"></image></g></g><!--z-index:23--><g   id="j_86"  transform="translate(1780,560)" style=""><g  id="v-657" style="opacity: 1;"><rect  id="v-658" rx="20" ry="20" stroke-width="7" pointer-events="visiblePainted" fill="#ffffff" stroke="#0773af" stroke-dasharray="" width="450" height="300" style="fill: rgb(255, 255, 255); stroke: rgb(7, 115, 175);"></rect><text  id="v-659" font-size="33.599999999999994px" xml:space="preserve" y="120.80000000000001" font-weight="bold" text-anchor="middle" pointer-events="visible" font-family="Tahoma, Verdana, Helvetica, Arial" fill="#0773af" dominant-baseline="hanging" transform="matrix(1,0,0,1,225,0)" style="fill: rgb(7, 115, 175);"><tspan  dy="0">Api</tspan></text><text  id="v-660" font-size="16.799999999999997px" xml:space="preserve" y="162.4" text-anchor="middle" font-family="Tahoma, Verdana, Helvetica, Arial" fill="#0773af" dominant-baseline="hanging" transform="matrix(1,0,0,1,225,0)" style="display: block; fill: rgb(7, 115, 175);"><tspan  dy="0">[Container: Asp.Net Core]</tspan></text><text  id="v-661" font-size="24px" xml:space="preserve" display="none" y="120.80000000000001" text-anchor="middle" font-family="Tahoma, Verdana, Helvetica, Arial" fill="#0773af" dominant-baseline="hanging" transform="matrix(1,0,0,1,225,0)" style="display: block; fill: rgb(7, 115, 175);"><tspan style="fill-opacity: 0; stroke-opacity: 0;"  dy="0">-</tspan></text><g  id="v-662" color="#0773af" transform="matrix(1,0,0,1,210,268)" style="fill: rgb(7, 115, 175);" display="none"><g ></g><g ></g><g ></g><g  transform="translate(5 0)"><svg xmlns="http://www.w3.org/2000/svg" width="20" height="20" fill="currentColor" viewBox="0 0 16 16"><path d="M6.354 5.5H4a3 3 0 0 0 0 6h3a3 3 0 0 0 2.83-4H9c-.086 0-.17.01-.25.031A2 2 0 0 1 7 10.5H4a2 2 0 1 1 0-4h1.535c.218-.376.495-.714.82-1z"></path><path d="M9 5.5a3 3 0 0 0-2.83 4h1.098A2 2 0 0 1 9 6.5h3a2 2 0 1 1 0 4h-1.535a4.02 4.02 0 0 1-.82 1H12a3 3 0 1 0 0-6H9z"></path></svg></g></g><image  id="v-663"></image></g></g><!--z-index:24--><g   id="j_88"  transform="translate(990,661)" style=""><g  id="v-669" style="opacity: 1;"><rect  id="v-670" rx="20" ry="20" stroke-width="7" pointer-events="visiblePainted" fill="#ffffff" stroke="#0773af" stroke-dasharray="" width="450" height="300" style="fill: rgb(255, 255, 255); stroke: rgb(7, 115, 175);"></rect><text  id="v-671" font-size="33.599999999999994px" xml:space="preserve" y="120.80000000000001" font-weight="bold" text-anchor="middle" pointer-events="visible" font-family="Tahoma, Verdana, Helvetica, Arial" fill="#0773af" dominant-baseline="hanging" transform="matrix(1,0,0,1,225,0)" style="fill: rgb(7, 115, 175);"><tspan  dy="0">Admin</tspan></text><text  id="v-672" font-size="16.799999999999997px" xml:space="preserve" y="162.4" text-anchor="middle" font-family="Tahoma, Verdana, Helvetica, Arial" fill="#0773af" dominant-baseline="hanging" transform="matrix(1,0,0,1,225,0)" style="display: block; fill: rgb(7, 115, 175);"><tspan  dy="0">[Container: Blazor WASM]</tspan></text><text  id="v-673" font-size="24px" xml:space="preserve" display="none" y="120.80000000000001" text-anchor="middle" font-family="Tahoma, Verdana, Helvetica, Arial" fill="#0773af" dominant-baseline="hanging" transform="matrix(1,0,0,1,225,0)" style="display: block; fill: rgb(7, 115, 175);"><tspan style="fill-opacity: 0; stroke-opacity: 0;"  dy="0">-</tspan></text><g  id="v-674" color="#0773af" transform="matrix(1,0,0,1,210,268)" style="fill: rgb(7, 115, 175);" display="none"><g ></g><g ></g><g ></g><g  transform="translate(5 0)"><svg xmlns="http://www.w3.org/2000/svg" width="20" height="20" fill="currentColor" viewBox="0 0 16 16"><path d="M6.354 5.5H4a3 3 0 0 0 0 6h3a3 3 0 0 0 2.83-4H9c-.086 0-.17.01-.25.031A2 2 0 0 1 7 10.5H4a2 2 0 1 1 0-4h1.535c.218-.376.495-.714.82-1z"></path><path d="M9 5.5a3 3 0 0 0-2.83 4h1.098A2 2 0 0 1 9 6.5h3a2 2 0 1 1 0 4h-1.535a4.02 4.02 0 0 1-.82 1H12a3 3 0 1 0 0-6H9z"></path></svg></g></g><image  id="v-675"></image></g></g><!--z-index:25--><g   id="j_89"  transform="translate(990,211)" style=""><g  id="v-676" style="opacity: 1;"><rect  id="v-677" rx="20" ry="20" stroke-width="7" pointer-events="visiblePainted" fill="#ffffff" stroke="#0773af" stroke-dasharray="" width="450" height="300" style="fill: rgb(255, 255, 255); stroke: rgb(7, 115, 175);"></rect><text  id="v-678" font-size="33.599999999999994px" xml:space="preserve" y="120.80000000000001" font-weight="bold" text-anchor="middle" pointer-events="visible" font-family="Tahoma, Verdana, Helvetica, Arial" fill="#0773af" dominant-baseline="hanging" transform="matrix(1,0,0,1,225,0)" style="fill: rgb(7, 115, 175);"><tspan  dy="0">Portal</tspan></text><text  id="v-679" font-size="16.799999999999997px" xml:space="preserve" y="162.4" text-anchor="middle" font-family="Tahoma, Verdana, Helvetica, Arial" fill="#0773af" dominant-baseline="hanging" transform="matrix(1,0,0,1,225,0)" style="display: block; fill: rgb(7, 115, 175);"><tspan  dy="0">[Container: Blazor WASM]</tspan></text><text  id="v-680" font-size="24px" xml:space="preserve" display="none" y="120.80000000000001" text-anchor="middle" font-family="Tahoma, Verdana, Helvetica, Arial" fill="#0773af" dominant-baseline="hanging" transform="matrix(1,0,0,1,225,0)" style="display: block; fill: rgb(7, 115, 175);"><tspan style="fill-opacity: 0; stroke-opacity: 0;"  dy="0">-</tspan></text><g  id="v-681" color="#0773af" transform="matrix(1,0,0,1,210,268)" style="fill: rgb(7, 115, 175);" display="none"><g ></g><g ></g><g ></g><g  transform="translate(5 0)"><svg xmlns="http://www.w3.org/2000/svg" width="20" height="20" fill="currentColor" viewBox="0 0 16 16"><path d="M6.354 5.5H4a3 3 0 0 0 0 6h3a3 3 0 0 0 2.83-4H9c-.086 0-.17.01-.25.031A2 2 0 0 1 7 10.5H4a2 2 0 1 1 0-4h1.535c.218-.376.495-.714.82-1z"></path><path d="M9 5.5a3 3 0 0 0-2.83 4h1.098A2 2 0 0 1 9 6.5h3a2 2 0 1 1 0 4h-1.535a4.02 4.02 0 0 1-.82 1H12a3 3 0 1 0 0-6H9z"></path></svg></g></g><image  id="v-682"></image></g></g><!--z-index:26--><g   id="j_90"  transform="translate(2570,209)" style=""><g  id="v-683" style="opacity: 1;"><rect  id="v-684" rx="20" ry="20" stroke-width="7" pointer-events="visiblePainted" fill="#ffffff" stroke="#0773af" stroke-dasharray="" width="450" height="300" style="fill: rgb(255, 255, 255); stroke: rgb(7, 115, 175);"></rect><text  id="v-685" font-size="33.599999999999994px" xml:space="preserve" y="120.80000000000001" font-weight="bold" text-anchor="middle" pointer-events="visible" font-family="Tahoma, Verdana, Helvetica, Arial" fill="#0773af" dominant-baseline="hanging" transform="matrix(1,0,0,1,225,0)" style="fill: rgb(7, 115, 175);"><tspan  dy="0">KeyCloak</tspan></text><text  id="v-686" font-size="16.799999999999997px" xml:space="preserve" y="162.4" text-anchor="middle" font-family="Tahoma, Verdana, Helvetica, Arial" fill="#0773af" dominant-baseline="hanging" transform="matrix(1,0,0,1,225,0)" style="display: block; fill: rgb(7, 115, 175);"><tspan  dy="0">[Container: Java]</tspan></text><text  id="v-687" font-size="24px" xml:space="preserve" display="none" y="120.80000000000001" text-anchor="middle" font-family="Tahoma, Verdana, Helvetica, Arial" fill="#0773af" dominant-baseline="hanging" transform="matrix(1,0,0,1,225,0)" style="display: block; fill: rgb(7, 115, 175);"><tspan style="fill-opacity: 0; stroke-opacity: 0;"  dy="0">-</tspan></text><g  id="v-688" color="#0773af" transform="matrix(1,0,0,1,210,268)" style="fill: rgb(7, 115, 175);" display="none"><g ></g><g ></g><g ></g><g  transform="translate(5 0)"><svg xmlns="http://www.w3.org/2000/svg" width="20" height="20" fill="currentColor" viewBox="0 0 16 16"><path d="M6.354 5.5H4a3 3 0 0 0 0 6h3a3 3 0 0 0 2.83-4H9c-.086 0-.17.01-.25.031A2 2 0 0 1 7 10.5H4a2 2 0 1 1 0-4h1.535c.218-.376.495-.714.82-1z"></path><path d="M9 5.5a3 3 0 0 0-2.83 4h1.098A2 2 0 0 1 9 6.5h3a2 2 0 1 1 0 4h-1.535a4.02 4.02 0 0 1-.82 1H12a3 3 0 1 0 0-6H9z"></path></svg></g></g><image  id="v-689"></image></g></g><!--z-index:27--><g   id="j_91"  transform="translate(2570,609)" style=""><g  id="v-690" style="opacity: 1;"><path  d="M 0,30 a 225,30 0,0,0 450 0 a 225,30 0,0,0 -450 0 l 0,240 a 225,30 0,0,0 450 0 l 0,-240" id="v-691" stroke-width="7" pointer-events="visiblePainted" fill="#ffffff" stroke="#0773af" stroke-dasharray="" style="fill: rgb(255, 255, 255); stroke: rgb(7, 115, 175);"></path><rect  id="v-692" stroke-width="0" pointer-events="visiblePainted" fill="none" stroke="none" width="450" height="270" x="0" y="30"></rect><text  id="v-693" font-size="33.599999999999994px" xml:space="preserve" y="135.8" font-weight="bold" text-anchor="middle" pointer-events="visible" font-family="Tahoma, Verdana, Helvetica, Arial" fill="#0773af" dominant-baseline="hanging" transform="matrix(1,0,0,1,225,0)" style="fill: rgb(7, 115, 175);"><tspan  dy="0">Database Schema</tspan></text><text  id="v-694" font-size="16.799999999999997px" xml:space="preserve" y="177.4" text-anchor="middle" font-family="Tahoma, Verdana, Helvetica, Arial" fill="#0773af" dominant-baseline="hanging" transform="matrix(1,0,0,1,225,0)" style="display: block; fill: rgb(7, 115, 175);"><tspan  dy="0">[Container: Postgresql]</tspan></text><text  id="v-695" font-size="24px" xml:space="preserve" display="none" y="135.8" text-anchor="middle" font-family="Tahoma, Verdana, Helvetica, Arial" fill="#0773af" dominant-baseline="hanging" transform="matrix(1,0,0,1,225,0)" style="display: block; fill: rgb(7, 115, 175);"><tspan style="fill-opacity: 0; stroke-opacity: 0;"  dy="0">-</tspan></text><g  id="v-696" font-weight="normal" text-anchor="middle" color="#0773af" transform="matrix(1,0,0,1,210,268)" style="fill: rgb(7, 115, 175);" display="none"><g ></g><g ></g><g ></g><g  transform="translate(5 0)"><svg xmlns="http://www.w3.org/2000/svg" width="20" height="20" fill="currentColor" viewBox="0 0 16 16"><path d="M6.354 5.5H4a3 3 0 0 0 0 6h3a3 3 0 0 0 2.83-4H9c-.086 0-.17.01-.25.031A2 2 0 0 1 7 10.5H4a2 2 0 1 1 0-4h1.535c.218-.376.495-.714.82-1z"></path><path d="M9 5.5a3 3 0 0 0-2.83 4h1.098A2 2 0 0 1 9 6.5h3a2 2 0 1 1 0 4h-1.535a4.02 4.02 0 0 1-.82 1H12a3 3 0 1 0 0-6H9z"></path></svg></g></g><image  id="v-697"></image></g></g><!--z-index:28--><g   id="j_92"  transform="translate(2570,1061)" style=""><g  id="v-698" style="opacity: 1;"><rect  id="v-699" rx="20" ry="20" stroke-width="7" pointer-events="visiblePainted" fill="#ffffff" stroke="#0773af" stroke-dasharray="" width="450" height="300" style="fill: rgb(255, 255, 255); stroke: rgb(7, 115, 175);"></rect><text  id="v-700" font-size="33.599999999999994px" xml:space="preserve" y="101.30000000000001" font-weight="bold" text-anchor="middle" pointer-events="visible" font-family="Tahoma, Verdana, Helvetica, Arial" fill="#0773af" dominant-baseline="hanging" transform="matrix(1,0,0,1,225,0)" style="fill: rgb(7, 115, 175);"><tspan  dy="0">OvhCloud</tspan></text><text  id="v-701" font-size="16.799999999999997px" xml:space="preserve" y="142.9" text-anchor="middle" font-family="Tahoma, Verdana, Helvetica, Arial" fill="#0773af" dominant-baseline="hanging" transform="matrix(1,0,0,1,225,0)" style="display: block; fill: rgb(7, 115, 175);"><tspan  dy="0">[Software System]</tspan></text><text  id="v-702" font-size="24px" xml:space="preserve" y="174.7" text-anchor="middle" font-family="Tahoma, Verdana, Helvetica, Arial" fill="#0773af" dominant-baseline="hanging" transform="matrix(1,0,0,1,225,0)" style="display: block; fill: rgb(7, 115, 175);"><tspan  dy="0">Cloud Service</tspan></text><g  id="v-703" color="#0773af" transform="matrix(1,0,0,1,222.5,268)" style="fill: rgb(7, 115, 175);" display="none"><g ></g><g ></g><g ></g><g ></g></g><image  id="v-704"></image></g></g><!--z-index:29--><g   id="j_93"  style="opacity: 1;"><path fill="none" cursor="pointer" stroke="transparent" stroke-linecap="round" joint-selector="wrapper" id="v-713" stroke-width="10" stroke-linejoin="round" d="M 600 361 L 990 361"></path><path fill="none" pointer-events="none" joint-selector="line" id="v-712" stroke="#444444" stroke-width="4" stroke-linejoin="round" stroke-dasharray="16 16" d="M 600 361 L 990 361" marker-end="url(#v-2633353823)"></path><g id="v-705" ><g id="v-706"  label-idx="0" cursor="move" transform="matrix(1,0,0,1,795,361)" style="cursor: default;"><rect joint-selector="rect" id="v-709" fill="#ffffff" rx="3" ry="3" x="-27.613332748413086" y="-17.32499885559082" width="55.22666549682617" height="29.975000381469727" pointer-events="none"  style="display: block;"></rect><text joint-selector="text" id="v-708" font-size="24px" xml:space="preserve" fill="#444444" text-anchor="middle" pointer-events="none" font-family="Tahoma, Verdana, Helvetica, Arial" font-weight="normal"  style="display: block;"><tspan  dy="0.3em">Uses</tspan></text></g><g id="v-707"  label-idx="1" cursor="move" transform="matrix(1,0,0,1,785,373)" style="cursor: default;"><rect joint-selector="rect" id="v-711" fill="#ffffff" rx="3" ry="3" x="0" y="5.684341886080802e-14" width="0" height="0"  display="none"></rect><text joint-selector="text" id="v-710" fill="#000000" font-size="14" text-anchor="middle" text-vertical-anchor="middle" pointer-events="none"></text></g></g></g><!--z-index:30--><g   id="j_94"  style="opacity: 1;"><path fill="none" cursor="pointer" stroke="transparent" stroke-linecap="round" joint-selector="wrapper" id="v-722" stroke-width="10" stroke-linejoin="round" d="M 600 811 L 990 811"></path><path fill="none" pointer-events="none" joint-selector="line" id="v-721" stroke="#444444" stroke-width="4" stroke-linejoin="round" stroke-dasharray="16 16" d="M 600 811 L 990 811" marker-end="url(#v-2633353823)"></path><g id="v-714" ><g id="v-715"  label-idx="0" cursor="move" transform="matrix(1,0,0,1,795,811)" style="cursor: default;"><rect joint-selector="rect" id="v-718" fill="#ffffff" rx="3" ry="3" x="-27.613332748413086" y="-17.32499885559082" width="55.22666549682617" height="29.975000381469727" pointer-events="none"  style="display: block;"></rect><text joint-selector="text" id="v-717" font-size="24px" xml:space="preserve" fill="#444444" text-anchor="middle" pointer-events="none" font-family="Tahoma, Verdana, Helvetica, Arial" font-weight="normal"  style="display: block;"><tspan  dy="0.3em">Uses</tspan></text></g><g id="v-716"  label-idx="1" cursor="move" transform="matrix(1,0,0,1,785,823)" style="cursor: default;"><rect joint-selector="rect" id="v-720" fill="#ffffff" rx="3" ry="3" x="0" y="5.684341886080802e-14" width="0" height="0"  display="none"></rect><text joint-selector="text" id="v-719" fill="#000000" font-size="14" text-anchor="middle" text-vertical-anchor="middle" pointer-events="none"></text></g></g></g><!--z-index:31--><g   id="j_95"  style="opacity: 1;"><path fill="none" cursor="pointer" stroke="transparent" stroke-linecap="round" joint-selector="wrapper" id="v-731" stroke-width="10" stroke-linejoin="round" d="M 1440 361 L 1600 361 C 1606.6666666666665 361 1612.3333333333333 363.3333333333333 1617 368 L 1835.23 560"></path><path fill="none" pointer-events="none" joint-selector="line" id="v-730" stroke="#444444" stroke-width="4" stroke-linejoin="round" stroke-dasharray="16 16" d="M 1440 361 L 1600 361 C 1606.6666666666665 361 1612.3333333333333 363.3333333333333 1617 368 L 1835.23 560" marker-end="url(#v-2633353823)"></path><g id="v-723" ><g id="v-724"  label-idx="0" cursor="move" transform="matrix(1,0,0,1,1658.958740234375,404.9155578613281)" style="cursor: default;"><rect joint-selector="rect" id="v-727" fill="#ffffff" rx="3" ry="3" x="-27.613332748413086" y="-17.32499885559082" width="55.22666549682617" height="29.975000381469727" pointer-events="none"  style="display: block;"></rect><text joint-selector="text" id="v-726" font-size="24px" xml:space="preserve" fill="#444444" text-anchor="middle" pointer-events="none" font-family="Tahoma, Verdana, Helvetica, Arial" font-weight="normal"  style="display: block;"><tspan  dy="0.3em">Uses</tspan></text></g><g id="v-725"  label-idx="1" cursor="move" transform="matrix(1,0,0,1,1648.958740234375,416.9155578613281)" style="cursor: default;"><rect joint-selector="rect" id="v-729" fill="#ffffff" rx="3" ry="3" x="0" y="5.684341886080802e-14" width="0" height="0"  display="none"></rect><text joint-selector="text" id="v-728" fill="#000000" font-size="14" text-anchor="middle" text-vertical-anchor="middle" pointer-events="none"></text></g></g></g><!--z-index:32--><g   id="j_96"  style="opacity: 1;"><path fill="none" cursor="pointer" stroke="transparent" stroke-linecap="round" joint-selector="wrapper" id="v-740" stroke-width="10" stroke-linejoin="round" d="M 1440 811 L 1600 811 C 1606.6666666666665 811 1613.3333333333333 810.3333333333333 1620 809 L 1780 767.53"></path><path fill="none" pointer-events="none" joint-selector="line" id="v-739" stroke="#444444" stroke-width="4" stroke-linejoin="round" stroke-dasharray="16 16" d="M 1440 811 L 1600 811 C 1606.6666666666665 811 1613.3333333333333 810.3333333333333 1620 809 L 1780 767.53" marker-end="url(#v-2633353823)"></path><g id="v-732" ><g id="v-733"  label-idx="0" cursor="move" transform="matrix(1,0,0,1,1612.65625,810.1990966796875)" style="cursor: default;"><rect joint-selector="rect" id="v-736" fill="#ffffff" rx="3" ry="3" x="-27.613332748413086" y="-17.32499885559082" width="55.22666549682617" height="29.975000381469727" pointer-events="none"  style="display: block;"></rect><text joint-selector="text" id="v-735" font-size="24px" xml:space="preserve" fill="#444444" text-anchor="middle" pointer-events="none" font-family="Tahoma, Verdana, Helvetica, Arial" font-weight="normal"  style="display: block;"><tspan  dy="0.3em">Uses</tspan></text></g><g id="v-734"  label-idx="1" cursor="move" transform="matrix(1,0,0,1,1602.65625,822.1990966796875)" style="cursor: default;"><rect joint-selector="rect" id="v-738" fill="#ffffff" rx="3" ry="3" x="0" y="5.684341886080802e-14" width="0" height="0"  display="none"></rect><text joint-selector="text" id="v-737" fill="#000000" font-size="14" text-anchor="middle" text-vertical-anchor="middle" pointer-events="none"></text></g></g></g><!--z-index:33--><g   id="j_97"  style="opacity: 1;"><path fill="none" cursor="pointer" stroke="transparent" stroke-linecap="round" joint-selector="wrapper" id="v-749" stroke-width="10" stroke-linejoin="round" d="M 2174.09 560 L 2393 366 C 2397.6666666666665 361.73333333333335 2403.333333333333 359.73333333333335 2410 360 L 2570 359.34"></path><path fill="none" pointer-events="none" joint-selector="line" id="v-748" stroke="#444444" stroke-width="4" stroke-linejoin="round" stroke-dasharray="16 16" d="M 2174.09 560 L 2393 366 C 2397.6666666666665 361.73333333333335 2403.333333333333 359.73333333333335 2410 360 L 2570 359.34" marker-end="url(#v-2633353823)"></path><g id="v-741" ><g id="v-742"  label-idx="0" cursor="move" transform="matrix(1,0,0,1,2350.3486328125,403.79791259765625)" style="cursor: default;"><rect joint-selector="rect" id="v-745" fill="#ffffff" rx="3" ry="3" x="-52.66062545776367" y="-17.32499885559082" width="105.04875183105469" height="29.975000381469727" pointer-events="none"  style="display: block;"></rect><text joint-selector="text" id="v-744" font-size="24px" xml:space="preserve" fill="#444444" text-anchor="middle" pointer-events="none" font-family="Tahoma, Verdana, Helvetica, Arial" font-weight="normal"  style="display: block;"><tspan  dy="0.3em">Authorize</tspan></text></g><g id="v-743"  label-idx="1" cursor="move" transform="matrix(1,0,0,1,2340.3486328125,415.79791259765625)" style="cursor: default;"><rect joint-selector="rect" id="v-747" fill="#ffffff" rx="3" ry="3" x="0" y="5.684341886080802e-14" width="0" height="0"  display="none"></rect><text joint-selector="text" id="v-746" fill="#000000" font-size="14" text-anchor="middle" text-vertical-anchor="middle" pointer-events="none"></text></g></g></g><!--z-index:34--><g   id="j_98"  style="opacity: 1;"><path fill="none" cursor="pointer" stroke="transparent" stroke-linecap="round" joint-selector="wrapper" id="v-761" stroke-width="10" stroke-linejoin="round" d="M 2230 738.25 L 2390 758 C 2396.6666666666665 759.0666666666666 2403.333333333333 759.7333333333333 2410 760 L 2570 759.34"></path><path fill="none" pointer-events="none" joint-selector="line" id="v-760" stroke="#444444" stroke-width="4" stroke-linejoin="round" stroke-dasharray="16 16" d="M 2230 738.25 L 2390 758 C 2396.6666666666665 759.0666666666666 2403.333333333333 759.7333333333333 2410 760 L 2570 759.34" marker-end="url(#v-2633353823)"></path><g id="v-753" ><g id="v-754"  label-idx="0" cursor="move" transform="matrix(1,0,0,1,2399.375,759.236328125)" style="cursor: default;"><rect joint-selector="rect" id="v-757" fill="#ffffff" rx="3" ry="3" x="-86.24624633789062" y="-31.725000381469727" width="172.49249267578125" height="58.775001525878906" pointer-events="none"  style="display: block;"></rect><text joint-selector="text" id="v-756" font-size="24px" xml:space="preserve" fill="#444444" text-anchor="middle" pointer-events="none" font-family="Tahoma, Verdana, Helvetica, Arial" font-weight="normal"  style="display: block;"><tspan  dy="-0.3em">Reads from and</tspan><tspan dy="1.2em" x="0" >writes to</tspan></text></g><g id="v-755"  label-idx="1" cursor="move" transform="matrix(1,0,0,1,2389.375,785.6363525390625)" style="cursor: default;"><rect joint-selector="rect" id="v-759" fill="#ffffff" rx="3" ry="3" x="0" y="5.684341886080802e-14" width="0" height="0"  display="none"></rect><text joint-selector="text" id="v-758" fill="#000000" font-size="14" text-anchor="middle" text-vertical-anchor="middle" pointer-events="none"></text></g></g></g><!--z-index:35--><g   id="j_99"  style="opacity: 1;"><path fill="none" cursor="pointer" stroke="transparent" stroke-linecap="round" joint-selector="wrapper" id="v-773" stroke-width="10" stroke-linejoin="round" d="M 2230 832.01 L 2391 919 C 2397 922.4666666666667 2402.6666666666665 926.1333333333333 2408 930 L 2588.41 1061"></path><path fill="none" pointer-events="none" joint-selector="line" id="v-772" stroke="#444444" stroke-width="4" stroke-linejoin="round" stroke-dasharray="16 16" d="M 2230 832.01 L 2391 919 C 2397 922.4666666666667 2402.6666666666665 926.1333333333333 2408 930 L 2588.41 1061" marker-end="url(#v-2633353823)"></path><g id="v-765" ><g id="v-766"  label-idx="0" cursor="move" transform="matrix(1,0,0,1,2415.97021484375,935.7874145507812)" style="cursor: default;"><rect joint-selector="rect" id="v-769" fill="#ffffff" rx="3" ry="3" x="-88.85770416259766" y="-31.725000381469727" width="177.71542358398438" height="58.775001525878906" pointer-events="none"  style="display: block;"></rect><text joint-selector="text" id="v-768" font-size="24px" xml:space="preserve" fill="#444444" text-anchor="middle" pointer-events="none" font-family="Tahoma, Verdana, Helvetica, Arial" font-weight="normal"  style="display: block;"><tspan  dy="-0.3em">Downloads from</tspan><tspan dy="1.2em" x="0" >and uploads to</tspan></text></g><g id="v-767"  label-idx="1" cursor="move" transform="matrix(1,0,0,1,2405.97021484375,962.1874389648438)" style="cursor: default;"><rect joint-selector="rect" id="v-771" fill="#ffffff" rx="3" ry="3" x="0" y="5.684341886080802e-14" width="0" height="0"  display="none"></rect><text joint-selector="text" id="v-770" fill="#000000" font-size="14" text-anchor="middle" text-vertical-anchor="middle" pointer-events="none"></text></g></g></g><!--z-index:36--></g><g  style="user-select: none;"></g><g ></g><g  display="none"></g></g></svg>