<svg xmlns="http://www.w3.org/2000/svg" xmlns:xlink="http://www.w3.org/1999/xlink" version="1.1" style="background: #ffffff" viewBox="0 0 1590 1250"><style id="v-3" type="text/css">        .joint-element .scalable * {            vector-effect: non-scaling-stroke;        }    </style><defs joint-selector="defs"><marker id="v-2633353823" orient="auto" overflow="visible" markerUnits="userSpaceOnUse"><path id="v-45" stroke="#444444" fill="#444444" transform="rotate(180)" d="M 40 -20 0 0 40 20 Z"></path></marker></defs><g  joint-selector="layers" transform="matrix(1,0,0,1,0,0)"><g style="pointer-events: none;" ></g><g ></g><g  style="user-select: none;"><!--z-index:1--><!--z-index:2--><!--z-index:3--><!--z-index:4--><!--z-index:5--><!--z-index:6--><!--z-index:7--><g   id="j_2"  transform="translate(20,1206)"><g id="v-6"><text  id="v-7" font-size="24px" xml:space="preserve" y="0.8em" font-weight="normal" text-anchor="start" fill="#444444" pointer-events="none" display="block" font-family="Tahoma, Verdana, Helvetica, Arial"><tspan  dy="0" display="block">Saturday, May 16, 2026 at 10:31 PM Central European Summer Time</tspan></text></g></g><!--z-index:8--><g   id="j_1"  transform="translate(20,1160)"><g id="v-4"><text  id="v-5" font-size="36px" xml:space="preserve" y="0.8em" font-weight="normal" text-anchor="start" fill="#444444" pointer-events="none" display="block" font-family="Tahoma, Verdana, Helvetica, Arial"><tspan  dy="0" display="block">System Context View: Byakko</tspan></text></g></g><!--z-index:9--><g   id="j_3"  transform="translate(199,159)" style=""><g  id="v-8" style="opacity: 1;"><rect  x="0" y="160" width="400" height="240" rx="70" id="v-10" stroke-width="7" pointer-events="visiblePainted" fill="#ffffff" stroke="#0773af" stroke-dasharray="" style="fill: rgb(255, 255, 255); stroke: rgb(7, 115, 175);"></rect><circle  cx="200" cy="88.88888888888889" r="88.88888888888889" id="v-9" stroke-width="7" pointer-events="visiblePainted" fill="#ffffff" stroke="#0773af" stroke-dasharray="" style="fill: rgb(255, 255, 255); stroke: rgb(7, 115, 175);"></circle><line  x1="80" y1="266.6666666666667" x2="80" y2="400" id="v-16" stroke="#0773af" stroke-width="1" stroke-dasharray="" style="stroke: rgb(7, 115, 175);"></line><line  x1="320" y1="266.6666666666667" x2="320" y2="400" id="v-17" stroke="#0773af" stroke-width="1" stroke-dasharray="" style="stroke: rgb(7, 115, 175);"></line><text  id="v-11" font-size="33.599999999999994px" xml:space="preserve" y="250.8" font-weight="bold" text-anchor="middle" pointer-events="visible" font-family="Tahoma, Verdana, Helvetica, Arial" fill="#0773af" dominant-baseline="hanging" transform="matrix(1,0,0,1,200,0)" style="fill: rgb(7, 115, 175);"><tspan  dy="0">User</tspan></text><text  id="v-12" font-size="16.799999999999997px" xml:space="preserve" y="292.4" text-anchor="middle" font-family="Tahoma, Verdana, Helvetica, Arial" fill="#0773af" dominant-baseline="hanging" transform="matrix(1,0,0,1,200,0)" style="display: block; fill: rgb(7, 115, 175);"><tspan  dy="0">[Person]</tspan></text><text  id="v-13" font-size="24px" xml:space="preserve" display="none" y="250.8" text-anchor="middle" font-family="Tahoma, Verdana, Helvetica, Arial" fill="#0773af" dominant-baseline="hanging" transform="matrix(1,0,0,1,200,0)" style="display: block; fill: rgb(7, 115, 175);"><tspan style="fill-opacity: 0; stroke-opacity: 0;"  dy="0">-</tspan></text><g  id="v-14" font-weight="normal" text-anchor="middle" color="#0773af" transform="matrix(1,0,0,1,197.5,368)" style="fill: rgb(7, 115, 175);" display="none"><g ></g><g ></g><g ></g><g ></g></g><image  id="v-15"></image></g></g><!--z-index:10--><g   id="j_4"  transform="translate(199,609)" style=""><g  id="v-18" style="opacity: 1;"><rect  x="0" y="160" width="400" height="240" rx="70" id="v-20" stroke-width="7" pointer-events="visiblePainted" fill="#ffffff" stroke="#0773af" stroke-dasharray="" style="fill: rgb(255, 255, 255); stroke: rgb(7, 115, 175);"></rect><circle  cx="200" cy="88.88888888888889" r="88.88888888888889" id="v-19" stroke-width="7" pointer-events="visiblePainted" fill="#ffffff" stroke="#0773af" stroke-dasharray="" style="fill: rgb(255, 255, 255); stroke: rgb(7, 115, 175);"></circle><line  x1="80" y1="266.6666666666667" x2="80" y2="400" id="v-26" stroke="#0773af" stroke-width="1" stroke-dasharray="" style="stroke: rgb(7, 115, 175);"></line><line  x1="320" y1="266.6666666666667" x2="320" y2="400" id="v-27" stroke="#0773af" stroke-width="1" stroke-dasharray="" style="stroke: rgb(7, 115, 175);"></line><text  id="v-21" font-size="33.599999999999994px" xml:space="preserve" y="250.8" font-weight="bold" text-anchor="middle" pointer-events="visible" font-family="Tahoma, Verdana, Helvetica, Arial" fill="#0773af" dominant-baseline="hanging" transform="matrix(1,0,0,1,200,0)" style="fill: rgb(7, 115, 175);"><tspan  dy="0">Administrator</tspan></text><text  id="v-22" font-size="16.799999999999997px" xml:space="preserve" y="292.4" text-anchor="middle" font-family="Tahoma, Verdana, Helvetica, Arial" fill="#0773af" dominant-baseline="hanging" transform="matrix(1,0,0,1,200,0)" style="display: block; fill: rgb(7, 115, 175);"><tspan  dy="0">[Person]</tspan></text><text  id="v-23" font-size="24px" xml:space="preserve" display="none" y="250.8" text-anchor="middle" font-family="Tahoma, Verdana, Helvetica, Arial" fill="#0773af" dominant-baseline="hanging" transform="matrix(1,0,0,1,200,0)" style="display: block; fill: rgb(7, 115, 175);"><tspan style="fill-opacity: 0; stroke-opacity: 0;"  dy="0">-</tspan></text><g  id="v-24" font-weight="normal" text-anchor="middle" color="#0773af" transform="matrix(1,0,0,1,197.5,368)" style="fill: rgb(7, 115, 175);" display="none"><g ></g><g ></g><g ></g><g ></g></g><image  id="v-25"></image></g></g><!--z-index:11--><g   id="j_5"  transform="translate(939,434)" style=""><g  id="v-28" style="opacity: 1;"><rect  id="v-29" rx="20" ry="20" stroke-width="7" pointer-events="visiblePainted" fill="#ffffff" stroke="#0773af" stroke-dasharray="" width="450" height="300" style="fill: rgb(255, 255, 255); stroke: rgb(7, 115, 175);"></rect><text  id="v-30" font-size="33.599999999999994px" xml:space="preserve" y="120.80000000000001" font-weight="bold" text-anchor="middle" pointer-events="visible" font-family="Tahoma, Verdana, Helvetica, Arial" fill="#0773af" dominant-baseline="hanging" transform="matrix(1,0,0,1,225,0)" style="fill: rgb(7, 115, 175);"><tspan  dy="0">Byakko</tspan></text><text  id="v-31" font-size="16.799999999999997px" xml:space="preserve" y="162.4" text-anchor="middle" font-family="Tahoma, Verdana, Helvetica, Arial" fill="#0773af" dominant-baseline="hanging" transform="matrix(1,0,0,1,225,0)" style="display: block; fill: rgb(7, 115, 175);"><tspan  dy="0">[Software System]</tspan></text><text  id="v-32" font-size="24px" xml:space="preserve" display="none" y="120.80000000000001" text-anchor="middle" font-family="Tahoma, Verdana, Helvetica, Arial" fill="#0773af" dominant-baseline="hanging" transform="matrix(1,0,0,1,225,0)" style="display: block; fill: rgb(7, 115, 175);"><tspan style="fill-opacity: 0; stroke-opacity: 0;"  dy="0">-</tspan></text><g  id="v-33" color="#0773af" transform="matrix(1,0,0,1,210,268)" style="fill: rgb(7, 115, 175);" display="none"><g  transform="translate(5 0)"><svg xmlns="http://www.w3.org/2000/svg" width="20" height="20" fill="currentColor" viewBox="0 0 16 16"><path fill-rule="evenodd" d="M6.5 12a5.5 5.5 0 1 0 0-11 5.5 5.5 0 0 0 0 11zM13 6.5a6.5 6.5 0 1 1-13 0 6.5 6.5 0 0 1 13 0z"></path><path d="M10.344 11.742c.03.04.062.078.098.115l3.85 3.85a1 1 0 0 0 1.415-1.414l-3.85-3.85a1.007 1.007 0 0 0-.115-.1 6.538 6.538 0 0 1-1.398 1.4z"></path><path fill-rule="evenodd" d="M6.5 3a.5.5 0 0 1 .5.5V6h2.5a.5.5 0 0 1 0 1H7v2.5a.5.5 0 0 1-1 0V7H3.5a.5.5 0 0 1 0-1H6V3.5a.5.5 0 0 1 .5-.5z"></path></svg></g><g ></g><g ></g><g ></g></g><image  id="v-34"></image></g></g><!--z-index:12--><g   id="j_6"  style="opacity: 1;"><path fill="none" cursor="pointer" stroke="transparent" stroke-linecap="round" joint-selector="wrapper" id="v-43" stroke-width="10" stroke-linejoin="round" d="M 599 359 L 759 359 C 765.6666666666666 359 772 360.66666666666663 778 364 L 939 455.84" style="stroke-width: 10px;"></path><path fill="none" pointer-events="none" joint-selector="line" id="v-42" stroke="#444444" stroke-width="4" stroke-linejoin="round" stroke-dasharray="16 16" d="M 599 359 L 759 359 C 765.6666666666666 359 772 360.66666666666663 778 364 L 939 455.84" marker-end="url(#v-2633353823)"></path><g id="v-35" ><g id="v-36"  label-idx="0" cursor="move" transform="matrix(1,0,0,1,768.712890625,360.2402648925781)" style="cursor: default;"><rect joint-selector="rect" id="v-39" fill="#ffffff" rx="3" ry="3" x="-27.82651138305664" y="-17.65380096435547" width="55.653018951416016" height="30.701753616333008" pointer-events="none"  style="display: block;"></rect><text joint-selector="text" id="v-38" font-size="24px" xml:space="preserve" fill="#444444" text-anchor="middle" pointer-events="none" font-family="Tahoma, Verdana, Helvetica, Arial" font-weight="normal"  style="display: block;"><tspan  dy="0.3em">Uses</tspan></text></g><g id="v-37"  label-idx="1" cursor="move" transform="matrix(1,0,0,1,758.712890625,372.2402648925781)" style="cursor: default;"><rect joint-selector="rect" id="v-41" fill="#ffffff" rx="3" ry="3" x="0" y="-1.1368683772161603e-13" width="0" height="0"  display="none"></rect><text joint-selector="text" id="v-40" fill="#000000" font-size="14" text-anchor="middle" text-vertical-anchor="middle" pointer-events="none"></text></g></g></g><!--z-index:13--><g   id="j_7"  style="opacity: 1;"><path fill="none" cursor="pointer" stroke="transparent" stroke-linecap="round" joint-selector="wrapper" id="v-54" stroke-width="10" stroke-linejoin="round" d="M 599 809 L 759 809 C 765.6666666666666 808.9999999999999 772 807.3333333333333 778 804 L 939 712.16" style="stroke-width: 10px;"></path><path fill="none" pointer-events="none" joint-selector="line" id="v-53" stroke="#444444" stroke-width="4" stroke-linejoin="round" stroke-dasharray="16 16" d="M 599 809 L 759 809 C 765.6666666666666 808.9999999999999 772 807.3333333333333 778 804 L 939 712.16" marker-end="url(#v-2633353823)"></path><g id="v-46" ><g id="v-47"  label-idx="0" cursor="move" transform="matrix(1,0,0,1,768.712890625,807.759765625)" style="cursor: default;"><rect joint-selector="rect" id="v-50" fill="#ffffff" rx="3" ry="3" x="-27.82651138305664" y="-17.65380096435547" width="55.653018951416016" height="30.701753616333008" pointer-events="none"  style="display: block;"></rect><text joint-selector="text" id="v-49" font-size="24px" xml:space="preserve" fill="#444444" text-anchor="middle" pointer-events="none" font-family="Tahoma, Verdana, Helvetica, Arial" font-weight="normal"  style="display: block;"><tspan  dy="0.3em">Uses</tspan></text></g><g id="v-48"  label-idx="1" cursor="move" transform="matrix(1,0,0,1,758.712890625,819.759765625)" style="cursor: default;"><rect joint-selector="rect" id="v-52" fill="#ffffff" rx="3" ry="3" x="0" y="0" width="0" height="0"  display="none"></rect><text joint-selector="text" id="v-51" fill="#000000" font-size="14" text-anchor="middle" text-vertical-anchor="middle" pointer-events="none"></text></g></g></g><!--z-index:14--></g><g  style="user-select: none;"></g><g ></g><g  display="none"></g></g></svg>