<svg xmlns="http://www.w3.org/2000/svg" xmlns:xlink="http://www.w3.org/1999/xlink" version="1.1" width="2380" height="1250" style="width: 2380px; height: 1250px; background: #ffffff" viewBox="0 0 2380 1250"><style id="v-3" type="text/css">        .joint-element .scalable * {            vector-effect: non-scaling-stroke;        }    </style><defs joint-selector="defs"><marker id="v-2633353823" orient="auto" overflow="visible" markerUnits="userSpaceOnUse"><path id="v-100" stroke="#444444" fill="#444444" transform="rotate(180)" d="M 40 -20 0 0 40 20 Z"></path></marker></defs><g  joint-selector="layers" transform="matrix(1,0,0,1,0,0)"><g style="pointer-events: none;" ></g><g ></g><g  style="user-select: none;"><!--z-index:1--><!--z-index:2--><!--z-index:3--><!--z-index:4--><!--z-index:5--><!--z-index:6--><!--z-index:7--><!--z-index:8--><!--z-index:9--><!--z-index:10--><!--z-index:11--><g   id="j_25"  transform="translate(20,1206)"><g id="v-193"><text  id="v-194" font-size="24px" xml:space="preserve" y="0.8em" font-weight="normal" text-anchor="start" fill="#444444" pointer-events="none" display="block" font-family="Tahoma, Verdana, Helvetica, Arial"><tspan  dy="0" display="block">Thursday, June 25, 2026 at 8:23 PM Central European Summer Time</tspan></text></g></g><!--z-index:12--><g   id="j_24"  transform="translate(20,1160)"><g id="v-191"><text  id="v-192" font-size="36px" xml:space="preserve" y="0.8em" font-weight="normal" text-anchor="start" fill="#444444" pointer-events="none" display="block" font-family="Tahoma, Verdana, Helvetica, Arial"><tspan  dy="0" display="block">System Context View: Byakko</tspan></text></g></g><!--z-index:13--><g   id="j_26"  transform="translate(199,159)" style=""><g  id="v-195" style="opacity: 1;"><rect  x="0" y="160" width="400" height="240" rx="70" id="v-197" stroke-width="7" pointer-events="visiblePainted" fill="#ffffff" stroke="#0773af" stroke-dasharray="" style="fill: rgb(255, 255, 255); stroke: rgb(7, 115, 175);"></rect><circle  cx="200" cy="88.88888888888889" r="88.88888888888889" id="v-196" stroke-width="7" pointer-events="visiblePainted" fill="#ffffff" stroke="#0773af" stroke-dasharray="" style="fill: rgb(255, 255, 255); stroke: rgb(7, 115, 175);"></circle><line  x1="80" y1="266.6666666666667" x2="80" y2="400" id="v-203" stroke="#0773af" stroke-width="1" stroke-dasharray="" style="stroke: rgb(7, 115, 175);"></line><line  x1="320" y1="266.6666666666667" x2="320" y2="400" id="v-204" stroke="#0773af" stroke-width="1" stroke-dasharray="" style="stroke: rgb(7, 115, 175);"></line><text  id="v-198" font-size="33.599999999999994px" xml:space="preserve" y="250.8" font-weight="bold" text-anchor="middle" pointer-events="visible" font-family="Tahoma, Verdana, Helvetica, Arial" fill="#0773af" dominant-baseline="hanging" transform="matrix(1,0,0,1,200,0)" style="fill: rgb(7, 115, 175);"><tspan  dy="0">User</tspan></text><text  id="v-199" font-size="16.799999999999997px" xml:space="preserve" y="292.4" text-anchor="middle" font-family="Tahoma, Verdana, Helvetica, Arial" fill="#0773af" dominant-baseline="hanging" transform="matrix(1,0,0,1,200,0)" style="display: block; fill: rgb(7, 115, 175);"><tspan  dy="0">[Person]</tspan></text><text  id="v-200" font-size="24px" xml:space="preserve" display="none" y="250.8" text-anchor="middle" font-family="Tahoma, Verdana, Helvetica, Arial" fill="#0773af" dominant-baseline="hanging" transform="matrix(1,0,0,1,200,0)" style="display: block; fill: rgb(7, 115, 175);"><tspan style="fill-opacity: 0; stroke-opacity: 0;"  dy="0">-</tspan></text><g  id="v-201" font-weight="normal" text-anchor="middle" color="#0773af" transform="matrix(1,0,0,1,197.5,368)" style="fill: rgb(7, 115, 175);" display="none"><g ></g><g ></g><g ></g><g ></g></g><image  id="v-202"></image></g></g><!--z-index:14--><g   id="j_27"  transform="translate(199,609)" style=""><g  id="v-205" style="opacity: 1;"><rect  x="0" y="160" width="400" height="240" rx="70" id="v-207" stroke-width="7" pointer-events="visiblePainted" fill="#ffffff" stroke="#0773af" stroke-dasharray="" style="fill: rgb(255, 255, 255); stroke: rgb(7, 115, 175);"></rect><circle  cx="200" cy="88.88888888888889" r="88.88888888888889" id="v-206" stroke-width="7" pointer-events="visiblePainted" fill="#ffffff" stroke="#0773af" stroke-dasharray="" style="fill: rgb(255, 255, 255); stroke: rgb(7, 115, 175);"></circle><line  x1="80" y1="266.6666666666667" x2="80" y2="400" id="v-213" stroke="#0773af" stroke-width="1" stroke-dasharray="" style="stroke: rgb(7, 115, 175);"></line><line  x1="320" y1="266.6666666666667" x2="320" y2="400" id="v-214" stroke="#0773af" stroke-width="1" stroke-dasharray="" style="stroke: rgb(7, 115, 175);"></line><text  id="v-208" font-size="33.599999999999994px" xml:space="preserve" y="250.8" font-weight="bold" text-anchor="middle" pointer-events="visible" font-family="Tahoma, Verdana, Helvetica, Arial" fill="#0773af" dominant-baseline="hanging" transform="matrix(1,0,0,1,200,0)" style="fill: rgb(7, 115, 175);"><tspan  dy="0">Administrator</tspan></text><text  id="v-209" font-size="16.799999999999997px" xml:space="preserve" y="292.4" text-anchor="middle" font-family="Tahoma, Verdana, Helvetica, Arial" fill="#0773af" dominant-baseline="hanging" transform="matrix(1,0,0,1,200,0)" style="display: block; fill: rgb(7, 115, 175);"><tspan  dy="0">[Person]</tspan></text><text  id="v-210" font-size="24px" xml:space="preserve" display="none" y="250.8" text-anchor="middle" font-family="Tahoma, Verdana, Helvetica, Arial" fill="#0773af" dominant-baseline="hanging" transform="matrix(1,0,0,1,200,0)" style="display: block; fill: rgb(7, 115, 175);"><tspan style="fill-opacity: 0; stroke-opacity: 0;"  dy="0">-</tspan></text><g  id="v-211" font-weight="normal" text-anchor="middle" color="#0773af" transform="matrix(1,0,0,1,197.5,368)" style="fill: rgb(7, 115, 175);" display="none"><g ></g><g ></g><g ></g><g ></g></g><image  id="v-212"></image></g></g><!--z-index:15--><g   id="j_28"  transform="translate(939,434)" style=""><g  id="v-215" style="opacity: 1;"><rect  id="v-216" rx="20" ry="20" stroke-width="7" pointer-events="visiblePainted" fill="#ffffff" stroke="#0773af" stroke-dasharray="" width="450" height="300" style="fill: rgb(255, 255, 255); stroke: rgb(7, 115, 175);"></rect><text  id="v-217" font-size="33.599999999999994px" xml:space="preserve" y="101.30000000000001" font-weight="bold" text-anchor="middle" pointer-events="visible" font-family="Tahoma, Verdana, Helvetica, Arial" fill="#0773af" dominant-baseline="hanging" transform="matrix(1,0,0,1,225,0)" style="fill: rgb(7, 115, 175);"><tspan  dy="0">Byakko</tspan></text><text  id="v-218" font-size="16.799999999999997px" xml:space="preserve" y="142.9" text-anchor="middle" font-family="Tahoma, Verdana, Helvetica, Arial" fill="#0773af" dominant-baseline="hanging" transform="matrix(1,0,0,1,225,0)" style="display: block; fill: rgb(7, 115, 175);"><tspan  dy="0">[Software System]</tspan></text><text  id="v-219" font-size="24px" xml:space="preserve" y="174.7" text-anchor="middle" font-family="Tahoma, Verdana, Helvetica, Arial" fill="#0773af" dominant-baseline="hanging" transform="matrix(1,0,0,1,225,0)" style="display: block; fill: rgb(7, 115, 175);"><tspan  dy="0">VPS</tspan></text><g  id="v-220" color="#0773af" transform="matrix(1,0,0,1,210,268)" style="fill: rgb(7, 115, 175);" display="none"><g  transform="translate(5 0)"><svg xmlns="http://www.w3.org/2000/svg" width="20" height="20" fill="currentColor" viewBox="0 0 16 16"><path fill-rule="evenodd" d="M6.5 12a5.5 5.5 0 1 0 0-11 5.5 5.5 0 0 0 0 11zM13 6.5a6.5 6.5 0 1 1-13 0 6.5 6.5 0 0 1 13 0z"></path><path d="M10.344 11.742c.03.04.062.078.098.115l3.85 3.85a1 1 0 0 0 1.415-1.414l-3.85-3.85a1.007 1.007 0 0 0-.115-.1 6.538 6.538 0 0 1-1.398 1.4z"></path><path fill-rule="evenodd" d="M6.5 3a.5.5 0 0 1 .5.5V6h2.5a.5.5 0 0 1 0 1H7v2.5a.5.5 0 0 1-1 0V7H3.5a.5.5 0 0 1 0-1H6V3.5a.5.5 0 0 1 .5-.5z"></path></svg></g><g ></g><g ></g><g ></g></g><image  id="v-221"></image></g></g><!--z-index:16--><g   id="j_29"  transform="translate(1729,259)" style=""><g  id="v-222" style="opacity: 1;"><rect  id="v-223" rx="20" ry="20" stroke-width="7" pointer-events="visiblePainted" fill="#ffffff" stroke="#0773af" stroke-dasharray="" width="450" height="300" style="fill: rgb(255, 255, 255); stroke: rgb(7, 115, 175);"></rect><text  id="v-224" font-size="33.599999999999994px" xml:space="preserve" y="101.30000000000001" font-weight="bold" text-anchor="middle" pointer-events="visible" font-family="Tahoma, Verdana, Helvetica, Arial" fill="#0773af" dominant-baseline="hanging" transform="matrix(1,0,0,1,225,0)" style="fill: rgb(7, 115, 175);"><tspan  dy="0">OvhCloud</tspan></text><text  id="v-225" font-size="16.799999999999997px" xml:space="preserve" y="142.9" text-anchor="middle" font-family="Tahoma, Verdana, Helvetica, Arial" fill="#0773af" dominant-baseline="hanging" transform="matrix(1,0,0,1,225,0)" style="display: block; fill: rgb(7, 115, 175);"><tspan  dy="0">[Software System]</tspan></text><text  id="v-226" font-size="24px" xml:space="preserve" y="174.7" text-anchor="middle" font-family="Tahoma, Verdana, Helvetica, Arial" fill="#0773af" dominant-baseline="hanging" transform="matrix(1,0,0,1,225,0)" style="display: block; fill: rgb(7, 115, 175);"><tspan  dy="0">Cloud Service</tspan></text><g  id="v-227" color="#0773af" transform="matrix(1,0,0,1,222.5,268)" style="fill: rgb(7, 115, 175);" display="none"><g ></g><g ></g><g ></g><g ></g></g><image  id="v-228"></image></g></g><!--z-index:17--><g   id="j_30"  transform="translate(1729,609)" style=""><g  id="v-229" style="opacity: 1;"><rect  id="v-230" rx="20" ry="20" stroke-width="7" pointer-events="visiblePainted" fill="#ffffff" stroke="#0773af" stroke-dasharray="" width="450" height="300" style="fill: rgb(255, 255, 255); stroke: rgb(7, 115, 175);"></rect><text  id="v-231" font-size="33.599999999999994px" xml:space="preserve" y="101.30000000000001" font-weight="bold" text-anchor="middle" pointer-events="visible" font-family="Tahoma, Verdana, Helvetica, Arial" fill="#0773af" dominant-baseline="hanging" transform="matrix(1,0,0,1,225,0)" style="fill: rgb(7, 115, 175);"><tspan  dy="0">Proton</tspan></text><text  id="v-232" font-size="16.799999999999997px" xml:space="preserve" y="142.9" text-anchor="middle" font-family="Tahoma, Verdana, Helvetica, Arial" fill="#0773af" dominant-baseline="hanging" transform="matrix(1,0,0,1,225,0)" style="display: block; fill: rgb(7, 115, 175);"><tspan  dy="0">[Software System]</tspan></text><text  id="v-233" font-size="24px" xml:space="preserve" y="174.7" text-anchor="middle" font-family="Tahoma, Verdana, Helvetica, Arial" fill="#0773af" dominant-baseline="hanging" transform="matrix(1,0,0,1,225,0)" style="display: block; fill: rgb(7, 115, 175);"><tspan  dy="0">Mail Service</tspan></text><g  id="v-234" color="#0773af" transform="matrix(1,0,0,1,222.5,268)" style="fill: rgb(7, 115, 175);" display="none"><g ></g><g ></g><g ></g><g ></g></g><image  id="v-235"></image></g></g><!--z-index:18--><g   id="j_31"  style="opacity: 1;"><path fill="none" cursor="pointer" stroke="transparent" stroke-linecap="round" joint-selector="wrapper" id="v-244" stroke-width="10" stroke-linejoin="round" d="M 599 359 L 759 359 C 765.6666666666666 359 772 360.66666666666663 778 364 L 939 455.84" style="stroke-width: 10px;"></path><path fill="none" pointer-events="none" joint-selector="line" id="v-243" stroke="#444444" stroke-width="4" stroke-linejoin="round" stroke-dasharray="16 16" d="M 599 359 L 759 359 C 765.6666666666666 359 772 360.66666666666663 778 364 L 939 455.84" marker-end="url(#v-2633353823)"></path><g id="v-236" ><g id="v-237"  label-idx="0" cursor="move" transform="matrix(1,0,0,1,768.712890625,360.2402648925781)" style="cursor: default;"><rect joint-selector="rect" id="v-240" fill="#ffffff" rx="3" ry="3" x="-27.71561622619629" y="-17.974822998046875" width="55.431236267089844" height="30.769229888916016" pointer-events="none"  style="display: block;"></rect><text joint-selector="text" id="v-239" font-size="24px" xml:space="preserve" fill="#444444" text-anchor="middle" pointer-events="none" font-family="Tahoma, Verdana, Helvetica, Arial" font-weight="normal"  style="display: block;"><tspan  dy="0.3em">Uses</tspan></text></g><g id="v-238"  label-idx="1" cursor="move" transform="matrix(1,0,0,1,758.712890625,372.2402648925781)" style="cursor: default;"><rect joint-selector="rect" id="v-242" fill="#ffffff" rx="3" ry="3" x="2.2737367544323206e-13" y="0" width="0" height="0"  display="none"></rect><text joint-selector="text" id="v-241" fill="#000000" font-size="14" text-anchor="middle" text-vertical-anchor="middle" pointer-events="none"></text></g></g></g><!--z-index:19--><g   id="j_32"  style="opacity: 1;"><path fill="none" cursor="pointer" stroke="transparent" stroke-linecap="round" joint-selector="wrapper" id="v-253" stroke-width="10" stroke-linejoin="round" d="M 599 809 L 759 809 C 765.6666666666666 808.9999999999999 772 807.3333333333333 778 804 L 939 712.16" style="stroke-width: 10px;"></path><path fill="none" pointer-events="none" joint-selector="line" id="v-252" stroke="#444444" stroke-width="4" stroke-linejoin="round" stroke-dasharray="16 16" d="M 599 809 L 759 809 C 765.6666666666666 808.9999999999999 772 807.3333333333333 778 804 L 939 712.16" marker-end="url(#v-2633353823)"></path><g id="v-245" ><g id="v-246"  label-idx="0" cursor="move" transform="matrix(1,0,0,1,768.712890625,807.759765625)" style="cursor: default;"><rect joint-selector="rect" id="v-249" fill="#ffffff" rx="3" ry="3" x="-27.71561622619629" y="-17.974822998046875" width="55.431236267089844" height="30.769229888916016" pointer-events="none"  style="display: block;"></rect><text joint-selector="text" id="v-248" font-size="24px" xml:space="preserve" fill="#444444" text-anchor="middle" pointer-events="none" font-family="Tahoma, Verdana, Helvetica, Arial" font-weight="normal"  style="display: block;"><tspan  dy="0.3em">Uses</tspan></text></g><g id="v-247"  label-idx="1" cursor="move" transform="matrix(1,0,0,1,758.712890625,819.759765625)" style="cursor: default;"><rect joint-selector="rect" id="v-251" fill="#ffffff" rx="3" ry="3" x="2.2737367544323206e-13" y="0" width="0" height="0"  display="none"></rect><text joint-selector="text" id="v-250" fill="#000000" font-size="14" text-anchor="middle" text-vertical-anchor="middle" pointer-events="none"></text></g></g></g><!--z-index:20--><g   id="j_33"  style="opacity: 1;"><path fill="none" cursor="pointer" stroke="transparent" stroke-linecap="round" joint-selector="wrapper" id="v-265" stroke-width="10" stroke-linejoin="round" d="M 1389 484.32 L 1550 413 C 1556 410.33333333333326 1562.3333333333333 408.99999999999994 1569 409 L 1729 409" style="stroke-width: 10px;"></path><path fill="none" pointer-events="none" joint-selector="line" id="v-264" stroke="#444444" stroke-width="4" stroke-linejoin="round" stroke-dasharray="16 16" d="M 1389 484.32 L 1550 413 C 1556 410.33333333333326 1562.3333333333333 408.99999999999994 1569 409 L 1729 409" marker-end="url(#v-2633353823)"></path><g id="v-257" ><g id="v-258"  label-idx="0" cursor="move" transform="matrix(1,0,0,1,1559.212890625,410.0078125)" style="cursor: default;"><rect joint-selector="rect" id="v-261" fill="#ffffff" rx="3" ry="3" x="-89.0209732055664" y="-32.37482452392578" width="178.0419464111328" height="59.56922912597656" pointer-events="none"  style="display: block;"></rect><text joint-selector="text" id="v-260" font-size="24px" xml:space="preserve" fill="#444444" text-anchor="middle" pointer-events="none" font-family="Tahoma, Verdana, Helvetica, Arial" font-weight="normal"  style="display: block;"><tspan  dy="-0.3em">Downloads from</tspan><tspan dy="1.2em" x="0" >and uploads to</tspan></text></g><g id="v-259"  label-idx="1" cursor="move" transform="matrix(1,0,0,1,1549.212890625,436.4078369140625)" style="cursor: default;"><rect joint-selector="rect" id="v-263" fill="#ffffff" rx="3" ry="3" x="0" y="0" width="0" height="0"  display="none"></rect><text joint-selector="text" id="v-262" fill="#000000" font-size="14" text-anchor="middle" text-vertical-anchor="middle" pointer-events="none"></text></g></g></g><!--z-index:21--><g   id="j_34"  style="opacity: 1;"><path fill="none" cursor="pointer" stroke="transparent" stroke-linecap="round" joint-selector="wrapper" id="v-274" stroke-width="10" stroke-linejoin="round" d="M 1389 683.68 L 1550 755 C 1556 757.6666666666666 1562.3333333333333 759 1569 759 L 1729 759" style="stroke-width: 10px;"></path><path fill="none" pointer-events="none" joint-selector="line" id="v-273" stroke="#444444" stroke-width="4" stroke-linejoin="round" stroke-dasharray="16 16" d="M 1389 683.68 L 1550 755 C 1556 757.6666666666666 1562.3333333333333 759 1569 759 L 1729 759" marker-end="url(#v-2633353823)"></path><g id="v-266" ><g id="v-267"  label-idx="0" cursor="move" transform="matrix(1,0,0,1,1559.212890625,757.9921875)" style="cursor: default;"><rect joint-selector="rect" id="v-270" fill="#ffffff" rx="3" ry="3" x="-60.16316604614258" y="-17.974822998046875" width="120.32633209228516" height="30.769229888916016" pointer-events="none"  style="display: block;"></rect><text joint-selector="text" id="v-269" font-size="24px" xml:space="preserve" fill="#444444" text-anchor="middle" pointer-events="none" font-family="Tahoma, Verdana, Helvetica, Arial" font-weight="normal"  style="display: block;"><tspan  dy="0.3em">Sends mail</tspan></text></g><g id="v-268"  label-idx="1" cursor="move" transform="matrix(1,0,0,1,1549.212890625,769.9921875)" style="cursor: default;"><rect joint-selector="rect" id="v-272" fill="#ffffff" rx="3" ry="3" x="0" y="0" width="0" height="0"  display="none"></rect><text joint-selector="text" id="v-271" fill="#000000" font-size="14" text-anchor="middle" text-vertical-anchor="middle" pointer-events="none"></text></g></g></g><!--z-index:22--><!--z-index:23--><!--z-index:24--><!--z-index:25--><!--z-index:26--><!--z-index:27--><!--z-index:28--><!--z-index:29--><!--z-index:30--><!--z-index:31--><!--z-index:32--><!--z-index:33--><!--z-index:34--><!--z-index:35--><!--z-index:36--><!--z-index:37--><!--z-index:38--><!--z-index:39--><!--z-index:40--><!--z-index:41--><!--z-index:42--><!--z-index:43--><!--z-index:44--><!--z-index:45--><!--z-index:46--></g><g  style="user-select: none;"></g><g ></g><g  display="none"></g></g></svg>