<svg xmlns="http://www.w3.org/2000/svg" xmlns:xlink="http://www.w3.org/1999/xlink" version="1.1" style="background: #ffffff" viewBox="0 0 2380 1250"><style id="v-3" type="text/css">        .joint-element .scalable * {            vector-effect: non-scaling-stroke;        }    </style><defs joint-selector="defs"><marker id="v-2633353823" orient="auto" overflow="visible" markerUnits="userSpaceOnUse"><path id="v-86" stroke="#444444" fill="#444444" transform="rotate(180)" d="M 40 -20 0 0 40 20 Z"></path></marker></defs><g  joint-selector="layers" transform="matrix(1,0,0,1,0,0)"><g style="pointer-events: none;" ></g><g ></g><g  style="user-select: none;"><!--z-index:1--><!--z-index:2--><!--z-index:3--><!--z-index:4--><!--z-index:5--><!--z-index:6--><!--z-index:7--><!--z-index:8--><!--z-index:9--><g   id="j_74"  transform="translate(20,1206)"><g id="v-567"><text  id="v-568" font-size="24px" xml:space="preserve" y="0.8em" font-weight="normal" text-anchor="start" fill="#444444" pointer-events="none" display="block" font-family="Tahoma, Verdana, Helvetica, Arial"><tspan  dy="0" display="block">Saturday, May 30, 2026 at 11:52 AM Central European Summer Time</tspan></text></g></g><!--z-index:10--><g   id="j_73"  transform="translate(20,1160)"><g id="v-565"><text  id="v-566" font-size="36px" xml:space="preserve" y="0.8em" font-weight="normal" text-anchor="start" fill="#444444" pointer-events="none" display="block" font-family="Tahoma, Verdana, Helvetica, Arial"><tspan  dy="0" display="block">System Context View: Byakko</tspan></text></g></g><!--z-index:11--><g   id="j_75"  transform="translate(199,159)" style=""><g  id="v-569" style="opacity: 1;"><rect  x="0" y="160" width="400" height="240" rx="70" id="v-571" stroke-width="7" pointer-events="visiblePainted" fill="#ffffff" stroke="#0773af" stroke-dasharray="" style="fill: rgb(255, 255, 255); stroke: rgb(7, 115, 175);"></rect><circle  cx="200" cy="88.88888888888889" r="88.88888888888889" id="v-570" stroke-width="7" pointer-events="visiblePainted" fill="#ffffff" stroke="#0773af" stroke-dasharray="" style="fill: rgb(255, 255, 255); stroke: rgb(7, 115, 175);"></circle><line  x1="80" y1="266.6666666666667" x2="80" y2="400" id="v-577" stroke="#0773af" stroke-width="1" stroke-dasharray="" style="stroke: rgb(7, 115, 175);"></line><line  x1="320" y1="266.6666666666667" x2="320" y2="400" id="v-578" stroke="#0773af" stroke-width="1" stroke-dasharray="" style="stroke: rgb(7, 115, 175);"></line><text  id="v-572" font-size="33.599999999999994px" xml:space="preserve" y="250.8" font-weight="bold" text-anchor="middle" pointer-events="visible" font-family="Tahoma, Verdana, Helvetica, Arial" fill="#0773af" dominant-baseline="hanging" transform="matrix(1,0,0,1,200,0)" style="fill: rgb(7, 115, 175);"><tspan  dy="0">User</tspan></text><text  id="v-573" font-size="16.799999999999997px" xml:space="preserve" y="292.4" text-anchor="middle" font-family="Tahoma, Verdana, Helvetica, Arial" fill="#0773af" dominant-baseline="hanging" transform="matrix(1,0,0,1,200,0)" style="display: block; fill: rgb(7, 115, 175);"><tspan  dy="0">[Person]</tspan></text><text  id="v-574" font-size="24px" xml:space="preserve" display="none" y="250.8" text-anchor="middle" font-family="Tahoma, Verdana, Helvetica, Arial" fill="#0773af" dominant-baseline="hanging" transform="matrix(1,0,0,1,200,0)" style="display: block; fill: rgb(7, 115, 175);"><tspan style="fill-opacity: 0; stroke-opacity: 0;"  dy="0">-</tspan></text><g  id="v-575" font-weight="normal" text-anchor="middle" color="#0773af" transform="matrix(1,0,0,1,197.5,368)" style="fill: rgb(7, 115, 175);" display="none"><g ></g><g ></g><g ></g><g ></g></g><image  id="v-576"></image></g></g><!--z-index:12--><g   id="j_76"  transform="translate(199,609)" style=""><g  id="v-579" style="opacity: 1;"><rect  x="0" y="160" width="400" height="240" rx="70" id="v-581" stroke-width="7" pointer-events="visiblePainted" fill="#ffffff" stroke="#0773af" stroke-dasharray="" style="fill: rgb(255, 255, 255); stroke: rgb(7, 115, 175);"></rect><circle  cx="200" cy="88.88888888888889" r="88.88888888888889" id="v-580" stroke-width="7" pointer-events="visiblePainted" fill="#ffffff" stroke="#0773af" stroke-dasharray="" style="fill: rgb(255, 255, 255); stroke: rgb(7, 115, 175);"></circle><line  x1="80" y1="266.6666666666667" x2="80" y2="400" id="v-587" stroke="#0773af" stroke-width="1" stroke-dasharray="" style="stroke: rgb(7, 115, 175);"></line><line  x1="320" y1="266.6666666666667" x2="320" y2="400" id="v-588" stroke="#0773af" stroke-width="1" stroke-dasharray="" style="stroke: rgb(7, 115, 175);"></line><text  id="v-582" font-size="33.599999999999994px" xml:space="preserve" y="250.8" font-weight="bold" text-anchor="middle" pointer-events="visible" font-family="Tahoma, Verdana, Helvetica, Arial" fill="#0773af" dominant-baseline="hanging" transform="matrix(1,0,0,1,200,0)" style="fill: rgb(7, 115, 175);"><tspan  dy="0">Administrator</tspan></text><text  id="v-583" font-size="16.799999999999997px" xml:space="preserve" y="292.4" text-anchor="middle" font-family="Tahoma, Verdana, Helvetica, Arial" fill="#0773af" dominant-baseline="hanging" transform="matrix(1,0,0,1,200,0)" style="display: block; fill: rgb(7, 115, 175);"><tspan  dy="0">[Person]</tspan></text><text  id="v-584" font-size="24px" xml:space="preserve" display="none" y="250.8" text-anchor="middle" font-family="Tahoma, Verdana, Helvetica, Arial" fill="#0773af" dominant-baseline="hanging" transform="matrix(1,0,0,1,200,0)" style="display: block; fill: rgb(7, 115, 175);"><tspan style="fill-opacity: 0; stroke-opacity: 0;"  dy="0">-</tspan></text><g  id="v-585" font-weight="normal" text-anchor="middle" color="#0773af" transform="matrix(1,0,0,1,197.5,368)" style="fill: rgb(7, 115, 175);" display="none"><g ></g><g ></g><g ></g><g ></g></g><image  id="v-586"></image></g></g><!--z-index:13--><g   id="j_77"  transform="translate(939,434)" style=""><g  id="v-589" style="opacity: 1;"><rect  id="v-590" rx="20" ry="20" stroke-width="7" pointer-events="visiblePainted" fill="#ffffff" stroke="#0773af" stroke-dasharray="" width="450" height="300" style="fill: rgb(255, 255, 255); stroke: rgb(7, 115, 175);"></rect><text  id="v-591" font-size="33.599999999999994px" xml:space="preserve" y="101.30000000000001" font-weight="bold" text-anchor="middle" pointer-events="visible" font-family="Tahoma, Verdana, Helvetica, Arial" fill="#0773af" dominant-baseline="hanging" transform="matrix(1,0,0,1,225,0)" style="fill: rgb(7, 115, 175);"><tspan  dy="0">Byakko</tspan></text><text  id="v-592" font-size="16.799999999999997px" xml:space="preserve" y="142.9" text-anchor="middle" font-family="Tahoma, Verdana, Helvetica, Arial" fill="#0773af" dominant-baseline="hanging" transform="matrix(1,0,0,1,225,0)" style="display: block; fill: rgb(7, 115, 175);"><tspan  dy="0">[Software System]</tspan></text><text  id="v-593" font-size="24px" xml:space="preserve" y="174.7" text-anchor="middle" font-family="Tahoma, Verdana, Helvetica, Arial" fill="#0773af" dominant-baseline="hanging" transform="matrix(1,0,0,1,225,0)" style="display: block; fill: rgb(7, 115, 175);"><tspan  dy="0">VPS</tspan></text><g  id="v-594" color="#0773af" transform="matrix(1,0,0,1,210,268)" style="fill: rgb(7, 115, 175);" display="none"><g  transform="translate(5 0)"><svg xmlns="http://www.w3.org/2000/svg" width="20" height="20" fill="currentColor" viewBox="0 0 16 16"><path fill-rule="evenodd" d="M6.5 12a5.5 5.5 0 1 0 0-11 5.5 5.5 0 0 0 0 11zM13 6.5a6.5 6.5 0 1 1-13 0 6.5 6.5 0 0 1 13 0z"></path><path d="M10.344 11.742c.03.04.062.078.098.115l3.85 3.85a1 1 0 0 0 1.415-1.414l-3.85-3.85a1.007 1.007 0 0 0-.115-.1 6.538 6.538 0 0 1-1.398 1.4z"></path><path fill-rule="evenodd" d="M6.5 3a.5.5 0 0 1 .5.5V6h2.5a.5.5 0 0 1 0 1H7v2.5a.5.5 0 0 1-1 0V7H3.5a.5.5 0 0 1 0-1H6V3.5a.5.5 0 0 1 .5-.5z"></path></svg></g><g ></g><g ></g><g ></g></g><image  id="v-595"></image></g></g><!--z-index:14--><g   id="j_78"  transform="translate(1729,434)" style=""><g  id="v-596" style="opacity: 1;"><rect  id="v-597" rx="20" ry="20" stroke-width="7" pointer-events="visiblePainted" fill="#ffffff" stroke="#0773af" stroke-dasharray="" width="450" height="300" style="fill: rgb(255, 255, 255); stroke: rgb(7, 115, 175);"></rect><text  id="v-598" font-size="33.599999999999994px" xml:space="preserve" y="101.30000000000001" font-weight="bold" text-anchor="middle" pointer-events="visible" font-family="Tahoma, Verdana, Helvetica, Arial" fill="#0773af" dominant-baseline="hanging" transform="matrix(1,0,0,1,225,0)" style="fill: rgb(7, 115, 175);"><tspan  dy="0">OvhCloud</tspan></text><text  id="v-599" font-size="16.799999999999997px" xml:space="preserve" y="142.9" text-anchor="middle" font-family="Tahoma, Verdana, Helvetica, Arial" fill="#0773af" dominant-baseline="hanging" transform="matrix(1,0,0,1,225,0)" style="display: block; fill: rgb(7, 115, 175);"><tspan  dy="0">[Software System]</tspan></text><text  id="v-600" font-size="24px" xml:space="preserve" y="174.7" text-anchor="middle" font-family="Tahoma, Verdana, Helvetica, Arial" fill="#0773af" dominant-baseline="hanging" transform="matrix(1,0,0,1,225,0)" style="display: block; fill: rgb(7, 115, 175);"><tspan  dy="0">Cloud Service</tspan></text><g  id="v-601" color="#0773af" transform="matrix(1,0,0,1,222.5,268)" style="fill: rgb(7, 115, 175);" display="none"><g ></g><g ></g><g ></g><g ></g></g><image  id="v-602"></image></g></g><!--z-index:15--><g   id="j_79"  style="opacity: 1;"><path fill="none" cursor="pointer" stroke="transparent" stroke-linecap="round" joint-selector="wrapper" id="v-611" stroke-width="10" stroke-linejoin="round" d="M 599 359 L 759 359 C 765.6666666666666 359 772 360.66666666666663 778 364 L 939 455.84"></path><path fill="none" pointer-events="none" joint-selector="line" id="v-610" stroke="#444444" stroke-width="4" stroke-linejoin="round" stroke-dasharray="16 16" d="M 599 359 L 759 359 C 765.6666666666666 359 772 360.66666666666663 778 364 L 939 455.84" marker-end="url(#v-2633353823)"></path><g id="v-603" ><g id="v-604"  label-idx="0" cursor="move" transform="matrix(1,0,0,1,780.3849487304688,365.3604736328125)" style="cursor: default;"><rect joint-selector="rect" id="v-607" fill="#ffffff" rx="3" ry="3" x="-26.874164581298828" y="-17.591665267944336" width="53.748329162597656" height="29.749998092651367" pointer-events="none"  style="display: block;"></rect><text joint-selector="text" id="v-606" font-size="24px" xml:space="preserve" fill="#444444" text-anchor="middle" pointer-events="none" font-family="Tahoma, Verdana, Helvetica, Arial" font-weight="normal"  style="display: block;"><tspan  dy="0.3em">Uses</tspan></text></g><g id="v-605"  label-idx="1" cursor="move" transform="matrix(1,0,0,1,770.3849487304688,377.3604736328125)" style="cursor: default;"><rect joint-selector="rect" id="v-609" fill="#ffffff" rx="3" ry="3" x="0" y="0" width="0" height="0"  display="none"></rect><text joint-selector="text" id="v-608" fill="#000000" font-size="14" text-anchor="middle" text-vertical-anchor="middle" pointer-events="none"></text></g></g></g><!--z-index:16--><g   id="j_80"  style="opacity: 1;"><path fill="none" cursor="pointer" stroke="transparent" stroke-linecap="round" joint-selector="wrapper" id="v-620" stroke-width="10" stroke-linejoin="round" d="M 599 809 L 759 809 C 765.6666666666666 808.9999999999999 772 807.3333333333333 778 804 L 939 712.16"></path><path fill="none" pointer-events="none" joint-selector="line" id="v-619" stroke="#444444" stroke-width="4" stroke-linejoin="round" stroke-dasharray="16 16" d="M 599 809 L 759 809 C 765.6666666666666 808.9999999999999 772 807.3333333333333 778 804 L 939 712.16" marker-end="url(#v-2633353823)"></path><g id="v-612" ><g id="v-613"  label-idx="0" cursor="move" transform="matrix(1,0,0,1,780.3849487304688,802.6395263671875)" style="cursor: default;"><rect joint-selector="rect" id="v-616" fill="#ffffff" rx="3" ry="3" x="-26.874164581298828" y="-17.591665267944336" width="53.748329162597656" height="29.749998092651367" pointer-events="none"  style="display: block;"></rect><text joint-selector="text" id="v-615" font-size="24px" xml:space="preserve" fill="#444444" text-anchor="middle" pointer-events="none" font-family="Tahoma, Verdana, Helvetica, Arial" font-weight="normal"  style="display: block;"><tspan  dy="0.3em">Uses</tspan></text></g><g id="v-614"  label-idx="1" cursor="move" transform="matrix(1,0,0,1,770.3849487304688,814.6395263671875)" style="cursor: default;"><rect joint-selector="rect" id="v-618" fill="#ffffff" rx="3" ry="3" x="0" y="0" width="0" height="0"  display="none"></rect><text joint-selector="text" id="v-617" fill="#000000" font-size="14" text-anchor="middle" text-vertical-anchor="middle" pointer-events="none"></text></g></g></g><!--z-index:17--><g   id="j_81"  style="opacity: 1;"><path fill="none" cursor="pointer" stroke="transparent" stroke-linecap="round" joint-selector="wrapper" id="v-632" stroke-width="10" stroke-linejoin="round" d="M 1389 584 L 1729 584"></path><path fill="none" pointer-events="none" joint-selector="line" id="v-631" stroke="#444444" stroke-width="4" stroke-linejoin="round" stroke-dasharray="16 16" d="M 1389 584 L 1729 584" marker-end="url(#v-2633353823)"></path><g id="v-624" ><g id="v-625"  label-idx="0" cursor="move" transform="matrix(1,0,0,1,1559,584)" style="cursor: default;"><rect joint-selector="rect" id="v-628" fill="#ffffff" rx="3" ry="3" x="-88.14263153076172" y="-31.99166488647461" width="176.28526306152344" height="58.54999923706055" pointer-events="none"  style="display: block;"></rect><text joint-selector="text" id="v-627" font-size="24px" xml:space="preserve" fill="#444444" text-anchor="middle" pointer-events="none" font-family="Tahoma, Verdana, Helvetica, Arial" font-weight="normal"  style="display: block;"><tspan  dy="-0.3em">Downloads from</tspan><tspan dy="1.2em" x="0" >and uploads to</tspan></text></g><g id="v-626"  label-idx="1" cursor="move" transform="matrix(1,0,0,1,1549,610.4000244140625)" style="cursor: default;"><rect joint-selector="rect" id="v-630" fill="#ffffff" rx="3" ry="3" x="0" y="0" width="0" height="0"  display="none"></rect><text joint-selector="text" id="v-629" fill="#000000" font-size="14" text-anchor="middle" text-vertical-anchor="middle" pointer-events="none"></text></g></g></g><!--z-index:18--><!--z-index:19--><!--z-index:20--><!--z-index:21--><!--z-index:22--><!--z-index:23--><!--z-index:24--><!--z-index:25--><!--z-index:26--><!--z-index:27--><!--z-index:28--><!--z-index:29--><!--z-index:30--><!--z-index:31--><!--z-index:32--><!--z-index:33--><!--z-index:34--><!--z-index:35--><!--z-index:36--></g><g  style="user-select: none;"></g><g ></g><g  display="none"></g></g></svg>